<svg width="40" height="40" viewBox="0 0 40 40" fill="none" xmlns="http://www.w3.org/2000/svg">
<path d="M0 0H40V40H0V0Z" fill="#F7DF1E"/>
<path d="M10.5177 33.4274L13.5787 31.5749C14.1693 32.6219 14.7065 33.5079 15.9951 33.5079C17.2302 33.5079 18.0091 33.0247 18.0091 31.1454V18.3644H21.768V31.1985C21.768 35.0918 19.4859 36.8639 16.1562 36.8639C13.1491 36.8639 11.4037 35.3066 10.5176 33.4271M23.8098 33.0246L26.8704 31.2525C27.6762 32.5683 28.7234 33.5349 30.5759 33.5349C32.1335 33.5349 33.1266 32.7561 33.1266 31.6821C33.1266 30.3933 32.1063 29.9368 30.3879 29.1852L29.4484 28.7821C26.7363 27.6279 24.9374 26.1779 24.9374 23.1169C24.9374 20.2975 27.0854 18.1494 30.4418 18.1494C32.8315 18.1494 34.5499 18.9819 35.7849 21.1568L32.858 23.0364C32.2135 21.8819 31.5157 21.4255 30.4416 21.4255C29.3407 21.4255 28.6426 22.1236 28.6426 23.0364C28.6426 24.1641 29.3407 24.6208 30.9516 25.3189L31.8913 25.7216C35.0866 27.0911 36.8855 28.4872 36.8855 31.6285C36.8855 35.0119 34.2274 36.8644 30.6563 36.8644C27.1659 36.8644 24.9104 35.1997 23.8096 33.0247" fill="black"/>
</svg>
