<svg width="40" height="40" viewBox="0 0 40 40" fill="none" xmlns="http://www.w3.org/2000/svg">
<path d="M16.0313 5.53125H7.2501C5.5001 5.53125 4.0626 6.96875 4.0626 8.75C4.0001 10.4687 5.3751 11.9062 7.09385 11.9687H16.1251L16.0313 5.53125Z" fill="#073042"/>
<path d="M35.9375 34.1563H7.25C5.46875 34.1563 4.0625 32.7187 4.0625 30.9375V8.71875C4.0625 10.5 5.5 11.9375 7.25 11.9687H31.2812C31.2812 11.9687 35.9687 11.5625 35.9687 15.0937V34.1563H35.9375Z" fill="#4285F4"/>
<path d="M22.5625 22.7813C23.8437 21.8126 24.0938 20.0001 23.125 18.7501C22.5938 18.0626 21.7813 17.6251 20.9063 17.5938H21C21.1562 17.5626 21.3438 17.5626 21.5 17.5938V15.8126C21.5 15.5938 21.4063 15.4063 21.2188 15.3126C20.9375 15.1563 20.5938 15.2501 20.4375 15.5313C20.375 15.6251 20.3437 15.7188 20.375 15.8438V17.6563C18.8125 17.9063 17.7188 19.3751 17.9688 20.9688V21.0001C18.0938 21.7501 18.5 22.4376 19.125 22.8751L13.8438 34.1876H17.2812L19.7187 29.0001C20 28.3751 20.75 28.0938 21.4063 28.4063C21.6563 28.5313 21.875 28.7501 22 29.0001L24.5313 34.1876H28.0312L22.5625 22.7813ZM20.7813 22.2813C19.7813 22.2813 19 21.4688 19 20.4688C19 19.4688 19.8125 18.6876 20.8125 18.7188C21.2812 18.7188 21.6875 18.9063 22.0313 19.2188C22.75 19.9063 22.75 21.0313 22.0625 21.7501C21.75 22.0626 21.2813 22.2813 20.7813 22.2813Z" fill="#3870B2"/>
<path d="M14.125 7.09375H26.4375V9.34375H14.125V7.09375Z" fill="white"/>
<path d="M19.8437 18.6876C20.8125 18.6876 21.625 19.5001 21.5937 20.5001C21.5937 21.4688 20.7812 22.2813 19.7812 22.2501C18.8125 22.2501 18.0312 21.4376 18.0312 20.4688C18.0312 20.0001 18.2187 19.5626 18.5625 19.2188C18.9062 18.8751 19.375 18.6876 19.8437 18.6876ZM20.5312 17.6563V15.7813C20.5312 15.5626 20.4375 15.3751 20.25 15.2813C19.9687 15.1251 19.625 15.2188 19.4687 15.5001C19.4062 15.5938 19.375 15.6876 19.4062 15.8126V17.6251C17.8437 17.8751 16.75 19.3438 17 20.9376V20.9688C17.125 21.7188 17.5312 22.4063 18.1562 22.8438L11.5 37.1251C11.25 37.6251 11.2812 38.2501 11.625 38.7188C12.125 39.4376 13.0937 39.6251 13.8125 39.1251C14.0625 38.9688 14.25 38.7188 14.375 38.4688L18.8125 28.9688C19.0937 28.3438 19.8437 28.0626 20.5 28.3751C20.75 28.5001 20.9687 28.7188 21.0937 28.9688L25.625 38.3751C26 39.1563 26.9375 39.4688 27.7187 39.0938C28.5 38.7188 28.8125 37.7813 28.4375 37.0001L21.5937 22.7813C22.8437 21.7813 23.0625 19.9376 22.0625 18.6876C21.6875 18.1876 21.1562 17.8438 20.5312 17.6563Z" fill="#073042"/>
<path d="M24.625 9.09375C24.1563 9.09375 23.7812 8.75 23.7812 8.28125C23.7812 8.0625 23.875 7.8125 24.0312 7.65625C24.375 7.34375 24.875 7.34375 25.2187 7.65625C25.375 7.8125 25.4687 8.03125 25.4687 8.25C25.4375 8.71875 25.0938 9.0625 24.625 9.09375ZM15.375 9.0625C14.9063 9.0625 14.5313 8.6875 14.5313 8.25C14.5313 8.03125 14.625 7.8125 14.7812 7.65625C15.0625 7.3125 15.5938 7.25 15.9375 7.53125H15.9687C16.3125 7.84375 16.3437 8.375 16.0312 8.71875L15.9375 8.84375C15.7813 9 15.5625 9.09375 15.3437 9.09375M24.875 4.03125L26.5312 1.15625C26.625 1 26.5625 0.8125 26.4375 0.6875C26.2812 0.625 26.125 0.65625 26.0313 0.78125L24.3125 3.75C21.5625 2.53125 18.4375 2.53125 15.7187 3.75L14.0313 0.8125C13.9688 0.71875 13.8438 0.625 13.7188 0.625C13.5938 0.625 13.4688 0.6875 13.4063 0.8125C13.3438 0.90625 13.3438 1.0625 13.4063 1.15625L15.0937 4.03125C12.1562 5.625 10.25 8.625 9.96875 11.9375H30.0312C29.7812 8.59375 27.8437 5.625 24.9062 4.03125" fill="#3DDC84"/>
<path d="M33 18.1562H31.6875C31.625 18.1875 31.5625 18.25 31.5625 18.3438V39.125C31.5625 39.2187 31.625 39.2812 31.7188 39.2812H33.0938C34.6875 39.2812 35.9687 37.9687 35.9687 36.4062V15.25C35.9687 16.8437 34.6875 18.125 33.0938 18.125H33V18.1562Z" fill="#073042"/>
</svg>
