<svg width="40" height="40" viewBox="0 0 40 40" fill="none" xmlns="http://www.w3.org/2000/svg">
<path d="M20 23.0923C21.7259 23.0923 23.125 21.6932 23.125 19.9673C23.125 18.2414 21.7259 16.8423 20 16.8423C18.2741 16.8423 16.875 18.2414 16.875 19.9673C16.875 21.6932 18.2741 23.0923 20 23.0923Z" fill="#00D8FF"/>
<path d="M20 27.1325C16.2439 27.223 12.4973 26.7167 8.9 25.6325C7.23828 25.1057 5.68842 24.2759 4.32875 23.185C3.80973 22.8125 3.37753 22.332 3.06185 21.7766C2.74617 21.2212 2.55449 20.604 2.5 19.9675C2.5 17.9012 4.77 15.8762 8.5725 14.5512C12.2661 13.3781 16.125 12.8091 20 12.8662C23.8233 12.8134 27.6306 13.3721 31.2775 14.5212C32.8776 15.032 34.3748 15.8216 35.7 16.8537C36.2094 17.2096 36.6346 17.6728 36.9456 18.2108C37.2566 18.7488 37.4458 19.3484 37.5 19.9675C37.5 22.115 34.9625 24.2912 30.875 25.6437C27.3474 26.6929 23.6798 27.195 20 27.1325ZM20 14.3612C16.2927 14.3128 12.6013 14.8537 9.06375 15.9637C5.56375 17.185 3.995 18.855 3.995 19.9637C3.995 21.1237 5.68125 22.9475 9.38375 24.2137C12.825 25.2462 16.4083 25.7268 20 25.6375C23.5205 25.7004 27.0299 25.2241 30.4063 24.225C34.25 22.9512 36 21.125 36 19.9675C35.9367 19.5703 35.7919 19.1906 35.5746 18.8522C35.3573 18.5138 35.0723 18.224 34.7375 18.0012C33.5521 17.0853 32.2146 16.3854 30.7862 15.9337C27.2974 14.8392 23.6562 14.3084 20 14.3612Z" fill="#00D8FF"/>
<path d="M12.8995 35.5539C12.3164 35.5672 11.7402 35.4257 11.2295 35.1439C9.43951 34.1114 8.81951 31.1339 9.57076 27.1776C10.4 23.3918 11.8352 19.7647 13.8208 16.4364C15.6846 13.0981 18.0701 10.0791 20.887 7.49389C22.1288 6.36277 23.5609 5.46013 25.117 4.82764C25.6802 4.56457 26.2942 4.42822 26.9158 4.42822C27.5373 4.42822 28.1514 4.56457 28.7145 4.82764C30.5758 5.90014 31.192 9.18514 30.3233 13.4014C29.4695 16.9821 28.0716 20.4107 26.1783 23.5676C24.3802 26.8667 22.0697 29.8593 19.3333 32.4339C18.0467 33.6099 16.5537 34.5376 14.9295 35.1701C14.2795 35.4121 13.593 35.5418 12.8995 35.5539ZM15.1158 17.1789C13.2219 20.366 11.8464 23.8338 11.0408 27.4526C10.3495 31.0964 11.0133 33.2876 11.9783 33.8451C12.9783 34.4239 15.4058 33.8751 18.3533 31.3001C20.9659 28.834 23.1712 25.9692 24.887 22.8126C26.7007 19.7945 28.0416 16.5166 28.8633 13.0926C29.6808 9.12389 28.9745 6.69389 27.972 6.11639C27.5962 5.97265 27.1947 5.90832 26.7929 5.92747C26.391 5.94662 25.9974 6.04882 25.637 6.22764C24.2517 6.79946 22.978 7.61105 21.8745 8.62514C19.1834 11.1016 16.9048 13.9917 15.1245 17.1864L15.1158 17.1789Z" fill="#00D8FF"/>
<path d="M27.0966 35.57C25.4028 35.57 23.2516 34.545 21.0116 32.6187C18.1457 30.0097 15.7199 26.9549 13.8278 23.5725C11.8667 20.2902 10.4429 16.7155 9.61034 12.9837C9.2501 11.3418 9.18324 9.64899 9.41284 7.98372C9.46682 7.36617 9.65524 6.76791 9.96489 6.23088C10.2745 5.69386 10.6979 5.23107 11.2053 4.87497C13.0641 3.79872 16.2178 4.90497 19.4366 7.76247C22.1123 10.2902 24.3846 13.2134 26.1741 16.43C28.1342 19.6356 29.5729 23.132 30.4366 26.7887C30.813 28.4909 30.871 30.248 30.6078 31.9712C30.5455 32.6068 30.3462 33.2213 30.0239 33.7726C29.7015 34.3239 29.2636 34.7989 28.7403 35.165C28.2378 35.4428 27.6707 35.5826 27.0966 35.57ZM15.1216 22.82C16.9368 26.0524 19.254 28.9759 21.9866 31.4812C24.7978 33.9 27.0278 34.42 27.9866 33.8562C28.9866 33.275 29.7241 30.9025 28.9641 27.0637C28.1317 23.5723 26.7517 20.2347 24.8753 17.175C23.1676 14.0964 20.9988 11.2973 18.4441 8.87497C15.4141 6.18497 12.9566 5.58372 11.9553 6.16372C11.6434 6.41748 11.3875 6.73307 11.2035 7.09061C11.0196 7.44816 10.9117 7.83992 10.8866 8.24122C10.688 9.72634 10.7527 11.2348 11.0778 12.6975C11.8789 16.2662 13.2444 19.6842 15.1228 22.8225L15.1216 22.82Z" fill="#00D8FF"/>
</svg>
