<svg width="40" height="40" viewBox="0 0 40 40" fill="none" xmlns="http://www.w3.org/2000/svg">
<path d="M10.7031 19.07C13.6884 20.1181 16.8373 20.6232 20.0006 20.5612C23.164 20.6228 26.3129 20.1173 29.2981 19.0688C31.6281 18.16 32.4544 17.15 32.4544 16.5688V12.125C31.6395 12.6701 30.7656 13.1213 29.8494 13.47C26.6911 14.6007 23.3547 15.152 20.0006 15.0975C16.6469 15.1501 13.311 14.5997 10.1519 13.4725C9.23505 13.124 8.36105 12.6719 7.54688 12.125V16.5625C7.54688 17.155 8.37563 18.16 10.7031 19.07ZM10.7031 27.4513C11.7576 27.8535 12.845 28.1634 13.9531 28.3775C15.9458 28.7622 17.9712 28.9518 20.0006 28.9438C22.03 28.9522 24.0554 28.763 26.0481 28.3787C27.1562 28.1646 28.2436 27.8547 29.2981 27.4525C31.6281 26.5438 32.4544 25.5338 32.4544 24.9525V20.715C31.781 21.1202 31.0733 21.4653 30.3394 21.7462C27.0215 22.9207 23.5196 23.4893 20.0006 23.425C16.4813 23.4873 12.9793 22.9166 9.66187 21.74C8.9287 21.4573 8.22111 21.1123 7.54688 20.7087V24.95C7.54688 25.5325 8.37563 26.5388 10.7031 27.4513ZM20.0006 37.5C26.8756 37.5 32.4544 35.32 32.4544 32.6325V29.0862C31.8418 29.4555 31.2001 29.7741 30.5356 30.0388L30.3394 30.1175C27.0221 31.2953 23.5202 31.8673 20.0006 31.8062C16.4808 31.8701 12.9784 31.298 9.66187 30.1175L9.46562 30.0388C8.80116 29.7741 8.15944 29.4555 7.54688 29.0862V32.6325C7.54688 35.32 13.1256 37.5 20.0006 37.5Z" fill="#FFDA44"/>
<path d="M20.0006 12.235C26.8786 12.235 32.4544 10.0557 32.4544 7.3675C32.4544 4.67925 26.8786 2.5 20.0006 2.5C13.1226 2.5 7.54688 4.67925 7.54688 7.3675C7.54688 10.0557 13.1226 12.235 20.0006 12.235Z" fill="#FFDA44"/>
</svg>
