<svg width="40" height="40" viewBox="0 0 40 40" fill="none" xmlns="http://www.w3.org/2000/svg">
<rect width="40" height="40" fill="url(#paint0_linear_71_112)"/>
<g filter="url(#filter0_d_71_112)">
<path d="M15.21 29.995C13.67 29.995 12.1883 29.6917 10.765 29.085C8.945 28.315 8.035 27.2533 8.035 25.9C8.035 24.3367 8.78167 23.0533 10.275 22.05C10.9517 21.6067 11.6517 21.28 12.375 21.07C13.0983 20.8367 13.8567 20.6967 14.65 20.65C15.0467 19.7167 15.5367 18.6317 16.12 17.395C16.7267 16.1583 17.3217 15.0033 17.905 13.93C18.0917 13.6033 18.3367 13.1717 18.64 12.635C18.9433 12.075 19.305 11.48 19.725 10.85C20.075 10.3367 20.67 10.08 21.51 10.08C21.8367 10.08 22 10.1733 22 10.36C22 10.4067 21.9767 10.4767 21.93 10.57C19.7367 13.5333 17.7067 16.8933 15.84 20.65C21.09 20.7433 24.9983 21.9217 27.565 24.185C28.3117 23.1817 28.685 22.26 28.685 21.42C28.685 19.95 27.6933 18.795 25.71 17.955C24.17 17.325 22.5367 17.01 20.81 17.01H20.005C19.7017 17.01 19.55 16.905 19.55 16.695C19.55 16.275 19.8883 16.0067 20.565 15.89C20.6817 15.8667 20.915 15.8317 21.265 15.785C21.6383 15.7383 21.965 15.6917 22.245 15.645C25.0683 15.085 27.1333 14.1867 28.44 12.95C28.9767 12.46 29.245 12.0167 29.245 11.62C29.245 10.78 28.16 10.15 25.99 9.73C24.52 9.45 23.0033 9.31 21.44 9.31C17.2633 9.31 13.3433 10.0683 9.68 11.585C9.54 11.6317 9.44667 11.655 9.4 11.655C9.21333 11.655 9.12 11.5617 9.12 11.375C9.12 11.0717 9.27167 10.7683 9.575 10.465C9.90167 10.115 10.205 9.88167 10.485 9.765C12.9117 8.785 16.0033 8.295 19.76 8.295C22 8.295 24.0767 8.505 25.99 8.925C28.9767 9.555 30.47 10.5583 30.47 11.935C30.47 13.055 29.56 14.07 27.74 14.98C26.41 15.6567 24.9983 16.1233 23.505 16.38C25.1617 16.7533 26.585 17.3017 27.775 18.025C29.4083 19.005 30.225 20.1833 30.225 21.56C30.225 22.68 29.6533 23.8817 28.51 25.165C29.1867 25.9817 29.525 26.5767 29.525 26.95C29.525 27.2767 29.3967 27.44 29.14 27.44C29.0233 27.44 28.93 27.3817 28.86 27.265C28.6967 26.9383 28.5333 26.6583 28.37 26.425C28.2067 26.1917 28.0433 25.9933 27.88 25.83C26.3867 27.23 24.4033 28.3033 21.93 29.05C19.8067 29.68 17.5667 29.995 15.21 29.995ZM15.21 29.225C20.39 29.225 24.2983 27.8017 26.935 24.955C25.6283 23.8583 23.9833 22.995 22 22.365C20.1567 21.7817 18.3017 21.49 16.435 21.49C16.2717 21.49 16.0967 21.49 15.91 21.49C15.7467 21.49 15.5833 21.5017 15.42 21.525C14.02 24.4883 13.32 26.4833 13.32 27.51C13.32 27.6267 13.3317 27.72 13.355 27.79C13.3783 27.86 13.39 27.9533 13.39 28.07C13.39 28.3733 13.2617 28.525 13.005 28.525C12.6317 28.525 12.445 28.21 12.445 27.58C12.445 26.53 13.04 24.5583 14.23 21.665C11.1267 22.1783 9.575 23.6133 9.575 25.97C9.575 27.02 10.2867 27.86 11.71 28.49C12.83 28.98 13.9967 29.225 15.21 29.225Z" fill="white"/>
<path d="M10.765 29.085L11.1571 28.1651L11.1546 28.164L10.765 29.085ZM10.275 22.05L9.72694 21.2135L9.71731 21.22L10.275 22.05ZM12.375 21.07L12.6538 22.0303L12.668 22.0262L12.682 22.0217L12.375 21.07ZM14.65 20.65L14.7087 21.6483L15.3278 21.6119L15.5703 21.0411L14.65 20.65ZM16.12 17.395L15.2222 16.9546L15.2188 16.9615L15.2156 16.9684L16.12 17.395ZM17.905 13.93L17.0368 13.4339L17.0315 13.4431L17.0264 13.4525L17.905 13.93ZM18.64 12.635L19.5106 13.1271L19.515 13.1192L19.5193 13.1113L18.64 12.635ZM19.725 10.85L18.8987 10.2866L18.893 10.2953L19.725 10.85ZM21.93 10.57L22.7338 11.1649L22.7855 11.095L22.8244 11.0172L21.93 10.57ZM15.84 20.65L14.9445 20.205L14.2405 21.6217L15.8222 21.6498L15.84 20.65ZM27.565 24.185L26.9036 24.935L27.7186 25.6537L28.3672 24.782L27.565 24.185ZM25.71 17.955L26.1 17.0341L26.0886 17.0295L25.71 17.955ZM20.565 15.89L20.7349 16.8755L20.748 16.8732L20.7611 16.8706L20.565 15.89ZM21.265 15.785L21.141 14.7927L21.1328 14.7938L21.265 15.785ZM22.245 15.645L22.4094 16.6314L22.4245 16.6289L22.4396 16.6259L22.245 15.645ZM28.44 12.95L27.7657 12.2115L27.7591 12.2176L27.7526 12.2237L28.44 12.95ZM25.99 9.73L26.18 8.74822L26.1771 8.74766L25.99 9.73ZM9.68 11.585L9.99623 12.5337L10.0298 12.5225L10.0625 12.5089L9.68 11.585ZM9.575 10.465L10.2821 11.1721L10.2943 11.1599L10.3061 11.1473L9.575 10.465ZM10.485 9.765L10.1105 8.8377L10.1004 8.84192L10.485 9.765ZM25.99 8.925L25.7756 9.90178L25.7836 9.90347L25.99 8.925ZM27.74 14.98L27.2928 14.0856L27.2865 14.0887L27.74 14.98ZM23.505 16.38L23.3356 15.3945L23.2852 17.3555L23.505 16.38ZM27.775 18.025L27.2556 18.8795L27.2605 18.8825L27.775 18.025ZM28.51 25.165L27.7633 24.4998L27.1918 25.1414L27.74 25.803L28.51 25.165ZM28.86 27.265L27.9656 27.7122L27.9827 27.7466L28.0025 27.7795L28.86 27.265ZM28.37 26.425L27.5508 26.9985L27.5508 26.9985L28.37 26.425ZM27.88 25.83L28.5871 25.1229L27.9024 24.4382L27.1961 25.1005L27.88 25.83ZM21.93 29.05L22.2145 30.0087L22.219 30.0073L21.93 29.05ZM26.935 24.955L27.6687 25.6345L28.3822 24.8641L27.5779 24.189L26.935 24.955ZM22 22.365L22.3027 21.4119L22.3017 21.4116L22 22.365ZM15.42 21.525L15.2786 20.5351L14.7457 20.6112L14.5158 21.0978L15.42 21.525ZM13.355 27.79L12.4063 28.1062L12.4063 28.1062L13.355 27.79ZM14.23 21.665L15.1548 22.0454L15.8375 20.3855L14.0668 20.6784L14.23 21.665ZM11.71 28.49L11.3052 29.4044L11.3092 29.4062L11.71 28.49ZM15.21 29.995V28.995C13.8054 28.995 12.4571 28.7192 11.1571 28.1651L10.765 29.085L10.3729 30.0049C11.9196 30.6642 13.5346 30.995 15.21 30.995V29.995ZM10.765 29.085L11.1546 28.164C9.50647 27.4667 9.035 26.6731 9.035 25.9H8.035H7.035C7.035 27.8335 8.38353 29.1633 10.3754 30.006L10.765 29.085ZM8.035 25.9H9.035C9.035 24.7242 9.56737 23.7302 10.8327 22.88L10.275 22.05L9.71731 21.22C7.99597 22.3765 7.035 23.9492 7.035 25.9H8.035ZM10.275 22.05L10.823 22.8865C11.4227 22.4935 12.0327 22.2107 12.6538 22.0303L12.375 21.07L12.0962 20.1097C11.2707 20.3493 10.4806 20.7198 9.72697 21.2135L10.275 22.05ZM12.375 21.07L12.682 22.0217C13.3213 21.8155 13.9959 21.6902 14.7087 21.6483L14.65 20.65L14.5913 19.6517C13.7174 19.7031 12.8754 19.8578 12.068 20.1183L12.375 21.07ZM14.65 20.65L15.5703 21.0411C15.9605 20.123 16.4449 19.0503 17.0244 17.8216L16.12 17.395L15.2156 16.9684C14.6285 18.213 14.1328 19.3103 13.7297 20.2589L14.65 20.65ZM16.12 17.395L17.0178 17.8354C17.6191 16.6097 18.2077 15.4672 18.7836 14.4075L17.905 13.93L17.0264 13.4525C16.4356 14.5395 15.8342 15.707 15.2222 16.9546L16.12 17.395ZM17.905 13.93L18.7732 14.4261C18.961 14.0975 19.2069 13.6643 19.5106 13.1271L18.64 12.635L17.7694 12.1429C17.4665 12.679 17.2223 13.1091 17.0368 13.4339L17.905 13.93ZM18.64 12.635L19.5193 13.1113C19.8057 12.5826 20.1509 12.0139 20.5571 11.4047L19.725 10.85L18.893 10.2953C18.4591 10.9461 18.081 11.5674 17.7607 12.1587L18.64 12.635ZM19.725 10.85L20.5512 11.4133C20.653 11.2641 20.8729 11.08 21.51 11.08V10.08V9.08C20.4671 9.08 19.497 9.40922 18.8988 10.2867L19.725 10.85ZM21.51 10.08V11.08C21.6109 11.08 21.5247 11.1002 21.3814 11.0182C21.2946 10.9686 21.187 10.8809 21.1056 10.7414C21.024 10.6015 21 10.4631 21 10.36H22H23C23 9.90435 22.7639 9.50474 22.3736 9.28176C22.067 9.10651 21.7358 9.08 21.51 9.08V10.08ZM22 10.36H21C21 10.2908 21.0084 10.2366 21.015 10.2033C21.0219 10.1689 21.0295 10.1442 21.0338 10.1313C21.0418 10.1072 21.0457 10.1026 21.0356 10.1228L21.93 10.57L22.8244 11.0172C22.875 10.916 23 10.6615 23 10.36H22ZM21.93 10.57L21.1262 9.97507C18.8936 12.9915 16.8338 16.4028 14.9445 20.205L15.84 20.65L16.7355 21.095C18.5796 17.3839 20.5798 14.0751 22.7338 11.1649L21.93 10.57ZM15.84 20.65L15.8222 21.6498C20.9562 21.7411 24.5887 22.8937 26.9036 24.935L27.565 24.185L28.2264 23.435C25.4079 20.9496 21.2238 19.7456 15.8578 19.6502L15.84 20.65ZM27.565 24.185L28.3672 24.782C29.1825 23.6865 29.685 22.5573 29.685 21.42H28.685H27.685C27.685 21.9626 27.4408 22.6769 26.7628 23.588L27.565 24.185ZM28.685 21.42H29.685C29.685 19.3687 28.2532 17.9461 26.1 17.0342L25.71 17.955L25.32 18.8758C27.1334 19.6439 27.685 20.5313 27.685 21.42H28.685ZM25.71 17.955L26.0886 17.0295C24.4239 16.3484 22.6615 16.01 20.81 16.01V17.01V18.01C22.4118 18.01 23.9161 18.3016 25.3314 18.8805L25.71 17.955ZM20.81 17.01V16.01H20.005V17.01V18.01H20.81V17.01ZM20.005 17.01V16.01C19.9378 16.01 20.065 15.9928 20.233 16.1091C20.3292 16.1757 20.4191 16.2737 20.4794 16.399C20.5375 16.5195 20.55 16.6271 20.55 16.695H19.55H18.55C18.55 17.0755 18.7083 17.4861 19.0945 17.7534C19.4142 17.9747 19.7689 18.01 20.005 18.01V17.01ZM19.55 16.695H20.55C20.55 16.7282 20.5423 16.7857 20.5109 16.8496C20.4799 16.9126 20.4421 16.9488 20.4251 16.9622C20.4115 16.9731 20.4213 16.9615 20.4756 16.9409C20.5294 16.9205 20.6131 16.8965 20.7349 16.8755L20.565 15.89L20.3951 14.9045C19.9794 14.9762 19.5382 15.113 19.1824 15.3953C18.7819 15.7129 18.55 16.1699 18.55 16.695H19.55ZM20.565 15.89L20.7611 16.8706C20.8408 16.8547 21.0421 16.8236 21.3972 16.7762L21.265 15.785L21.1328 14.7938C20.7879 14.8398 20.5226 14.8787 20.3689 14.9094L20.565 15.89ZM21.265 15.785L21.389 16.7773C21.7718 16.7294 22.1125 16.6809 22.4094 16.6314L22.245 15.645L22.0806 14.6586C21.8175 14.7025 21.5048 14.7472 21.141 14.7927L21.265 15.785ZM22.245 15.645L22.4396 16.6259C25.347 16.0492 27.6245 15.0987 29.1274 13.6763L28.44 12.95L27.7526 12.2237C26.6422 13.2746 24.7897 14.1208 22.0504 14.6641L22.245 15.645ZM28.44 12.95L29.1143 13.6885C29.6999 13.1538 30.245 12.4575 30.245 11.62H29.245H28.245C28.245 11.5879 28.2562 11.6199 28.1883 11.7322C28.1191 11.8465 27.9894 12.0073 27.7657 12.2115L28.44 12.95ZM29.245 11.62H30.245C30.245 10.6866 29.6186 10.0506 28.9334 9.65271C28.2472 9.25427 27.3045 8.96587 26.18 8.74822L25.99 9.73L25.8 10.7118C26.8455 10.9141 27.5303 11.1507 27.9291 11.3823C28.3289 11.6144 28.245 11.7134 28.245 11.62H29.245ZM25.99 9.73L26.1771 8.74766C24.6427 8.4554 23.0633 8.31 21.44 8.31V9.31V10.31C22.9433 10.31 24.3973 10.4446 25.8029 10.7123L25.99 9.73ZM21.44 9.31V8.31C17.1392 8.31 13.0885 9.09152 9.29747 10.6611L9.68 11.585L10.0625 12.5089C13.5982 11.0451 17.3875 10.31 21.44 10.31V9.31ZM9.68 11.585L9.36377 10.6363C9.33643 10.6454 9.31413 10.6525 9.2964 10.6578C9.27838 10.6632 9.26744 10.6661 9.26246 10.6674C9.26015 10.6679 9.26032 10.6679 9.26266 10.6674C9.26489 10.6669 9.27064 10.6657 9.27935 10.6642C9.28783 10.6628 9.30181 10.6607 9.32018 10.6589C9.33801 10.6571 9.36547 10.655 9.4 10.655V11.655V12.655C9.55246 12.655 9.68676 12.6228 9.74754 12.6076C9.8284 12.5874 9.91327 12.5613 9.99623 12.5337L9.68 11.585ZM9.4 11.655V10.655C9.46081 10.655 9.69009 10.6709 9.89711 10.8779C10.1041 11.0849 10.12 11.3142 10.12 11.375H9.12H8.12C8.12 11.6225 8.18255 11.9918 8.48289 12.2921C8.78324 12.5925 9.15252 12.655 9.4 12.655V11.655ZM9.12 11.375H10.12C10.12 11.3961 10.1135 11.3966 10.1282 11.3672C10.1451 11.3333 10.1873 11.267 10.2821 11.1721L9.575 10.465L8.86789 9.75789C8.45556 10.1702 8.12 10.7129 8.12 11.375H9.12ZM9.575 10.465L10.3061 11.1473C10.5857 10.8477 10.775 10.7275 10.8696 10.6881L10.485 9.765L10.1004 8.84192C9.63505 9.03581 9.21762 9.38232 8.84395 9.78268L9.575 10.465ZM10.485 9.765L10.8595 10.6922C13.1273 9.77638 16.0803 9.295 19.76 9.295V8.295V7.295C15.9264 7.295 12.696 7.79362 10.1105 8.83776L10.485 9.765ZM19.76 8.295V9.295C21.938 9.295 23.9419 9.49922 25.7756 9.90174L25.99 8.925L26.2044 7.94826C24.2115 7.51078 22.062 7.295 19.76 7.295V8.295ZM25.99 8.925L25.7836 9.90347C27.2266 10.2079 28.2013 10.583 28.7923 10.98C29.3571 11.3595 29.47 11.6795 29.47 11.935H30.47H31.47C31.47 10.8139 30.8363 9.94384 29.9077 9.31995C29.0053 8.71367 27.7401 8.27215 26.1964 7.94653L25.99 8.925ZM30.47 11.935H29.47C29.47 12.4395 29.0569 13.2035 27.2928 14.0856L27.74 14.98L28.1872 15.8744C30.0631 14.9365 31.47 13.6705 31.47 11.935H30.47ZM27.74 14.98L27.2865 14.0887C26.0474 14.7192 24.7316 15.1545 23.3356 15.3945L23.505 16.38L23.6744 17.3655C25.2651 17.0922 26.7726 16.5941 28.1935 15.8713L27.74 14.98ZM23.505 16.38L23.2852 17.3555C24.8585 17.7101 26.176 18.2233 27.2556 18.8795L27.775 18.025L28.2944 17.1705C26.994 16.38 25.4649 15.7966 23.7248 15.4045L23.505 16.38ZM27.775 18.025L27.2605 18.8825C28.7214 19.7591 29.225 20.6625 29.225 21.56H30.225H31.225C31.225 19.7042 30.0952 18.2509 28.2895 17.1675L27.775 18.025ZM30.225 21.56H29.225C29.225 22.3325 28.8275 23.3053 27.7633 24.4998L28.51 25.165L29.2567 25.8302C30.4792 24.458 31.225 23.0275 31.225 21.56H30.225ZM28.51 25.165L27.74 25.803C28.059 26.188 28.2728 26.4909 28.402 26.7181C28.5461 26.9715 28.525 27.0279 28.525 26.95H29.525H30.525C30.525 26.4988 30.3347 26.071 30.1405 25.7294C29.9314 25.3616 29.6377 24.9587 29.28 24.527L28.51 25.165ZM29.525 26.95H28.525C28.525 27.0096 28.5087 26.8699 28.6424 26.6997C28.7153 26.6069 28.8117 26.5338 28.9179 26.4888C29.018 26.4463 29.0997 26.44 29.14 26.44V27.44V28.44C29.4954 28.44 29.9169 28.3148 30.2151 27.9353C30.4771 27.6018 30.525 27.2171 30.525 26.95H29.525ZM29.14 27.44V26.44C29.2573 26.44 29.3906 26.472 29.5125 26.5483C29.6278 26.6203 29.6901 26.7048 29.7175 26.7505L28.86 27.265L28.0025 27.7795C28.2177 28.1382 28.6081 28.44 29.14 28.44V27.44ZM28.86 27.265L29.7544 26.8178C29.5749 26.4588 29.3872 26.1344 29.1892 25.8515L28.37 26.425L27.5508 26.9985C27.6794 27.1823 27.8184 27.4178 27.9656 27.7122L28.86 27.265ZM28.37 26.425L29.1892 25.8515C28.9999 25.581 28.7998 25.3356 28.5871 25.1229L27.88 25.83L27.1729 26.5371C27.2868 26.651 27.4135 26.8023 27.5508 26.9985L28.37 26.425ZM27.88 25.83L27.1961 25.1005C25.8406 26.3712 24.0045 27.3792 21.641 28.0927L21.93 29.05L22.219 30.0073C24.8022 29.2275 26.9327 28.0888 28.5639 26.5595L27.88 25.83ZM21.93 29.05L21.6456 28.0913C19.6203 28.6922 17.4765 28.995 15.21 28.995V29.995V30.995C17.6568 30.995 19.9931 30.6678 22.2144 30.0087L21.93 29.05ZM15.21 29.225V30.225C20.571 30.225 24.7853 28.7475 27.6687 25.6345L26.935 24.955L26.2014 24.2755C23.8113 26.8558 20.209 28.225 15.21 28.225V29.225ZM26.935 24.955L27.5779 24.189C26.1517 22.9921 24.3839 22.073 22.3027 21.4119L22 22.365L21.6973 23.3181C23.5827 23.917 25.1049 24.7246 26.2921 25.721L26.935 24.955ZM22 22.365L22.3017 21.4116C20.3643 20.7985 18.4077 20.49 16.435 20.49V21.49V22.49C18.1957 22.49 19.949 22.7648 21.6983 23.3184L22 22.365ZM16.435 21.49V20.49C16.4347 20.49 16.4344 20.49 16.434 20.49C16.4337 20.49 16.4334 20.49 16.4331 20.49C16.4328 20.49 16.4324 20.49 16.4321 20.49C16.4318 20.49 16.4315 20.49 16.4312 20.49C16.4309 20.49 16.4305 20.49 16.4302 20.49C16.4299 20.49 16.4296 20.49 16.4293 20.49C16.4289 20.49 16.4286 20.49 16.4283 20.49C16.428 20.49 16.4277 20.49 16.4273 20.49C16.427 20.49 16.4267 20.49 16.4264 20.49C16.4261 20.49 16.4257 20.49 16.4254 20.49C16.4251 20.49 16.4248 20.49 16.4245 20.49C16.4241 20.49 16.4238 20.49 16.4235 20.49C16.4232 20.49 16.4229 20.49 16.4225 20.49C16.4222 20.49 16.4219 20.49 16.4216 20.49C16.4213 20.49 16.4209 20.49 16.4206 20.49C16.4203 20.49 16.42 20.49 16.4197 20.49C16.4193 20.49 16.419 20.49 16.4187 20.49C16.4184 20.49 16.4181 20.49 16.4177 20.49C16.4174 20.49 16.4171 20.49 16.4168 20.49C16.4164 20.49 16.4161 20.49 16.4158 20.49C16.4155 20.49 16.4152 20.49 16.4148 20.49C16.4145 20.49 16.4142 20.49 16.4139 20.49C16.4136 20.49 16.4132 20.49 16.4129 20.49C16.4126 20.49 16.4123 20.49 16.412 20.49C16.4116 20.49 16.4113 20.49 16.411 20.49C16.4107 20.49 16.4103 20.49 16.41 20.49C16.4097 20.49 16.4094 20.49 16.4091 20.49C16.4087 20.49 16.4084 20.49 16.4081 20.49C16.4078 20.49 16.4075 20.49 16.4071 20.49C16.4068 20.49 16.4065 20.49 16.4062 20.49C16.4058 20.49 16.4055 20.49 16.4052 20.49C16.4049 20.49 16.4046 20.49 16.4042 20.49C16.4039 20.49 16.4036 20.49 16.4033 20.49C16.403 20.49 16.4026 20.49 16.4023 20.49C16.402 20.49 16.4017 20.49 16.4013 20.49C16.401 20.49 16.4007 20.49 16.4004 20.49C16.4001 20.49 16.3997 20.49 16.3994 20.49C16.3991 20.49 16.3988 20.49 16.3984 20.49C16.3981 20.49 16.3978 20.49 16.3975 20.49C16.3972 20.49 16.3968 20.49 16.3965 20.49C16.3962 20.49 16.3959 20.49 16.3955 20.49C16.3952 20.49 16.3949 20.49 16.3946 20.49C16.3942 20.49 16.3939 20.49 16.3936 20.49C16.3933 20.49 16.393 20.49 16.3926 20.49C16.3923 20.49 16.392 20.49 16.3917 20.49C16.3913 20.49 16.391 20.49 16.3907 20.49C16.3904 20.49 16.39 20.49 16.3897 20.49C16.3894 20.49 16.3891 20.49 16.3888 20.49C16.3884 20.49 16.3881 20.49 16.3878 20.49C16.3875 20.49 16.3871 20.49 16.3868 20.49C16.3865 20.49 16.3862 20.49 16.3858 20.49C16.3855 20.49 16.3852 20.49 16.3849 20.49C16.3846 20.49 16.3842 20.49 16.3839 20.49C16.3836 20.49 16.3833 20.49 16.3829 20.49C16.3826 20.49 16.3823 20.49 16.382 20.49C16.3816 20.49 16.3813 20.49 16.381 20.49C16.3807 20.49 16.3803 20.49 16.38 20.49C16.3797 20.49 16.3794 20.49 16.379 20.49C16.3787 20.49 16.3784 20.49 16.3781 20.49C16.3777 20.49 16.3774 20.49 16.3771 20.49C16.3768 20.49 16.3764 20.49 16.3761 20.49C16.3758 20.49 16.3755 20.49 16.3752 20.49C16.3748 20.49 16.3745 20.49 16.3742 20.49C16.3739 20.49 16.3735 20.49 16.3732 20.49C16.3729 20.49 16.3726 20.49 16.3722 20.49C16.3719 20.49 16.3716 20.49 16.3713 20.49C16.3709 20.49 16.3706 20.49 16.3703 20.49C16.37 20.49 16.3696 20.49 16.3693 20.49C16.369 20.49 16.3687 20.49 16.3683 20.49C16.368 20.49 16.3677 20.49 16.3674 20.49C16.367 20.49 16.3667 20.49 16.3664 20.49C16.3661 20.49 16.3657 20.49 16.3654 20.49C16.3651 20.49 16.3648 20.49 16.3644 20.49C16.3641 20.49 16.3638 20.49 16.3634 20.49C16.3631 20.49 16.3628 20.49 16.3625 20.49C16.3621 20.49 16.3618 20.49 16.3615 20.49C16.3612 20.49 16.3608 20.49 16.3605 20.49C16.3602 20.49 16.3599 20.49 16.3595 20.49C16.3592 20.49 16.3589 20.49 16.3586 20.49C16.3582 20.49 16.3579 20.49 16.3576 20.49C16.3573 20.49 16.3569 20.49 16.3566 20.49C16.3563 20.49 16.356 20.49 16.3556 20.49C16.3553 20.49 16.355 20.49 16.3546 20.49C16.3543 20.49 16.354 20.49 16.3537 20.49C16.3533 20.49 16.353 20.49 16.3527 20.49C16.3524 20.49 16.352 20.49 16.3517 20.49C16.3514 20.49 16.3511 20.49 16.3507 20.49C16.3504 20.49 16.3501 20.49 16.3497 20.49C16.3494 20.49 16.3491 20.49 16.3488 20.49C16.3484 20.49 16.3481 20.49 16.3478 20.49C16.3475 20.49 16.3471 20.49 16.3468 20.49C16.3465 20.49 16.3462 20.49 16.3458 20.49C16.3455 20.49 16.3452 20.49 16.3448 20.49C16.3445 20.49 16.3442 20.49 16.3439 20.49C16.3435 20.49 16.3432 20.49 16.3429 20.49C16.3426 20.49 16.3422 20.49 16.3419 20.49C16.3416 20.49 16.3412 20.49 16.3409 20.49C16.3406 20.49 16.3403 20.49 16.3399 20.49C16.3396 20.49 16.3393 20.49 16.3389 20.49C16.3386 20.49 16.3383 20.49 16.338 20.49C16.3376 20.49 16.3373 20.49 16.337 20.49C16.3367 20.49 16.3363 20.49 16.336 20.49C16.3357 20.49 16.3353 20.49 16.335 20.49C16.3347 20.49 16.3344 20.49 16.334 20.49C16.3337 20.49 16.3334 20.49 16.333 20.49C16.3327 20.49 16.3324 20.49 16.3321 20.49C16.3317 20.49 16.3314 20.49 16.3311 20.49C16.3307 20.49 16.3304 20.49 16.3301 20.49C16.3298 20.49 16.3294 20.49 16.3291 20.49C16.3288 20.49 16.3284 20.49 16.3281 20.49C16.3278 20.49 16.3275 20.49 16.3271 20.49C16.3268 20.49 16.3265 20.49 16.3261 20.49C16.3258 20.49 16.3255 20.49 16.3252 20.49C16.3248 20.49 16.3245 20.49 16.3242 20.49C16.3238 20.49 16.3235 20.49 16.3232 20.49C16.3228 20.49 16.3225 20.49 16.3222 20.49C16.3219 20.49 16.3215 20.49 16.3212 20.49C16.3209 20.49 16.3205 20.49 16.3202 20.49C16.3199 20.49 16.3196 20.49 16.3192 20.49C16.3189 20.49 16.3186 20.49 16.3182 20.49C16.3179 20.49 16.3176 20.49 16.3172 20.49C16.3169 20.49 16.3166 20.49 16.3163 20.49C16.3159 20.49 16.3156 20.49 16.3153 20.49C16.3149 20.49 16.3146 20.49 16.3143 20.49C16.3139 20.49 16.3136 20.49 16.3133 20.49C16.313 20.49 16.3126 20.49 16.3123 20.49C16.312 20.49 16.3116 20.49 16.3113 20.49C16.311 20.49 16.3106 20.49 16.3103 20.49C16.31 20.49 16.3097 20.49 16.3093 20.49C16.309 20.49 16.3087 20.49 16.3083 20.49C16.308 20.49 16.3077 20.49 16.3073 20.49C16.307 20.49 16.3067 20.49 16.3063 20.49C16.306 20.49 16.3057 20.49 16.3054 20.49C16.305 20.49 16.3047 20.49 16.3044 20.49C16.304 20.49 16.3037 20.49 16.3034 20.49C16.303 20.49 16.3027 20.49 16.3024 20.49C16.302 20.49 16.3017 20.49 16.3014 20.49C16.301 20.49 16.3007 20.49 16.3004 20.49C16.3001 20.49 16.2997 20.49 16.2994 20.49C16.2991 20.49 16.2987 20.49 16.2984 20.49C16.2981 20.49 16.2977 20.49 16.2974 20.49C16.2971 20.49 16.2967 20.49 16.2964 20.49C16.2961 20.49 16.2957 20.49 16.2954 20.49C16.2951 20.49 16.2948 20.49 16.2944 20.49C16.2941 20.49 16.2938 20.49 16.2934 20.49C16.2931 20.49 16.2928 20.49 16.2924 20.49C16.2921 20.49 16.2918 20.49 16.2914 20.49C16.2911 20.49 16.2908 20.49 16.2904 20.49C16.2901 20.49 16.2898 20.49 16.2894 20.49C16.2891 20.49 16.2888 20.49 16.2884 20.49C16.2881 20.49 16.2878 20.49 16.2874 20.49C16.2871 20.49 16.2868 20.49 16.2864 20.49C16.2861 20.49 16.2858 20.49 16.2854 20.49C16.2851 20.49 16.2848 20.49 16.2845 20.49C16.2841 20.49 16.2838 20.49 16.2835 20.49C16.2831 20.49 16.2828 20.49 16.2825 20.49C16.2821 20.49 16.2818 20.49 16.2815 20.49C16.2811 20.49 16.2808 20.49 16.2805 20.49C16.2801 20.49 16.2798 20.49 16.2795 20.49C16.2791 20.49 16.2788 20.49 16.2785 20.49C16.2781 20.49 16.2778 20.49 16.2775 20.49C16.2771 20.49 16.2768 20.49 16.2765 20.49C16.2761 20.49 16.2758 20.49 16.2755 20.49C16.2751 20.49 16.2748 20.49 16.2745 20.49C16.2741 20.49 16.2738 20.49 16.2735 20.49C16.2731 20.49 16.2728 20.49 16.2725 20.49C16.2721 20.49 16.2718 20.49 16.2715 20.49C16.2711 20.49 16.2708 20.49 16.2705 20.49C16.2701 20.49 16.2698 20.49 16.2694 20.49C16.2691 20.49 16.2688 20.49 16.2684 20.49C16.2681 20.49 16.2678 20.49 16.2674 20.49C16.2671 20.49 16.2668 20.49 16.2664 20.49C16.2661 20.49 16.2658 20.49 16.2654 20.49C16.2651 20.49 16.2648 20.49 16.2644 20.49C16.2641 20.49 16.2638 20.49 16.2634 20.49C16.2631 20.49 16.2628 20.49 16.2624 20.49C16.2621 20.49 16.2618 20.49 16.2614 20.49C16.2611 20.49 16.2608 20.49 16.2604 20.49C16.2601 20.49 16.2597 20.49 16.2594 20.49C16.2591 20.49 16.2587 20.49 16.2584 20.49C16.2581 20.49 16.2577 20.49 16.2574 20.49C16.2571 20.49 16.2567 20.49 16.2564 20.49C16.2561 20.49 16.2557 20.49 16.2554 20.49C16.2551 20.49 16.2547 20.49 16.2544 20.49C16.2541 20.49 16.2537 20.49 16.2534 20.49C16.253 20.49 16.2527 20.49 16.2524 20.49C16.252 20.49 16.2517 20.49 16.2514 20.49C16.251 20.49 16.2507 20.49 16.2504 20.49C16.25 20.49 16.2497 20.49 16.2494 20.49C16.249 20.49 16.2487 20.49 16.2483 20.49C16.248 20.49 16.2477 20.49 16.2473 20.49C16.247 20.49 16.2467 20.49 16.2463 20.49C16.246 20.49 16.2457 20.49 16.2453 20.49C16.245 20.49 16.2446 20.49 16.2443 20.49C16.244 20.49 16.2436 20.49 16.2433 20.49C16.243 20.49 16.2426 20.49 16.2423 20.49C16.242 20.49 16.2416 20.49 16.2413 20.49C16.2409 20.49 16.2406 20.49 16.2403 20.49C16.2399 20.49 16.2396 20.49 16.2393 20.49C16.2389 20.49 16.2386 20.49 16.2383 20.49C16.2379 20.49 16.2376 20.49 16.2372 20.49C16.2369 20.49 16.2366 20.49 16.2362 20.49C16.2359 20.49 16.2356 20.49 16.2352 20.49C16.2349 20.49 16.2345 20.49 16.2342 20.49C16.2339 20.49 16.2335 20.49 16.2332 20.49C16.2329 20.49 16.2325 20.49 16.2322 20.49C16.2318 20.49 16.2315 20.49 16.2312 20.49C16.2308 20.49 16.2305 20.49 16.2302 20.49C16.2298 20.49 16.2295 20.49 16.2291 20.49C16.2288 20.49 16.2285 20.49 16.2281 20.49C16.2278 20.49 16.2275 20.49 16.2271 20.49C16.2268 20.49 16.2264 20.49 16.2261 20.49C16.2258 20.49 16.2254 20.49 16.2251 20.49C16.2248 20.49 16.2244 20.49 16.2241 20.49C16.2237 20.49 16.2234 20.49 16.2231 20.49C16.2227 20.49 16.2224 20.49 16.2221 20.49C16.2217 20.49 16.2214 20.49 16.221 20.49C16.2207 20.49 16.2204 20.49 16.22 20.49C16.2197 20.49 16.2193 20.49 16.219 20.49C16.2187 20.49 16.2183 20.49 16.218 20.49C16.2177 20.49 16.2173 20.49 16.217 20.49C16.2166 20.49 16.2163 20.49 16.216 20.49C16.2156 20.49 16.2153 20.49 16.2149 20.49C16.2146 20.49 16.2143 20.49 16.2139 20.49C16.2136 20.49 16.2132 20.49 16.2129 20.49C16.2126 20.49 16.2122 20.49 16.2119 20.49C16.2116 20.49 16.2112 20.49 16.2109 20.49C16.2105 20.49 16.2102 20.49 16.2099 20.49C16.2095 20.49 16.2092 20.49 16.2088 20.49C16.2085 20.49 16.2082 20.49 16.2078 20.49C16.2075 20.49 16.2071 20.49 16.2068 20.49C16.2065 20.49 16.2061 20.49 16.2058 20.49C16.2054 20.49 16.2051 20.49 16.2048 20.49C16.2044 20.49 16.2041 20.49 16.2037 20.49C16.2034 20.49 16.2031 20.49 16.2027 20.49C16.2024 20.49 16.202 20.49 16.2017 20.49C16.2014 20.49 16.201 20.49 16.2007 20.49C16.2003 20.49 16.2 20.49 16.1997 20.49C16.1993 20.49 16.199 20.49 16.1986 20.49C16.1983 20.49 16.198 20.49 16.1976 20.49C16.1973 20.49 16.1969 20.49 16.1966 20.49C16.1963 20.49 16.1959 20.49 16.1956 20.49C16.1952 20.49 16.1949 20.49 16.1946 20.49C16.1942 20.49 16.1939 20.49 16.1935 20.49C16.1932 20.49 16.1929 20.49 16.1925 20.49C16.1922 20.49 16.1918 20.49 16.1915 20.49C16.1912 20.49 16.1908 20.49 16.1905 20.49C16.1901 20.49 16.1898 20.49 16.1894 20.49C16.1891 20.49 16.1888 20.49 16.1884 20.49C16.1881 20.49 16.1877 20.49 16.1874 20.49C16.1871 20.49 16.1867 20.49 16.1864 20.49C16.186 20.49 16.1857 20.49 16.1853 20.49C16.185 20.49 16.1847 20.49 16.1843 20.49C16.184 20.49 16.1836 20.49 16.1833 20.49C16.183 20.49 16.1826 20.49 16.1823 20.49C16.1819 20.49 16.1816 20.49 16.1813 20.49C16.1809 20.49 16.1806 20.49 16.1802 20.49C16.1799 20.49 16.1795 20.49 16.1792 20.49C16.1789 20.49 16.1785 20.49 16.1782 20.49C16.1778 20.49 16.1775 20.49 16.1771 20.49C16.1768 20.49 16.1765 20.49 16.1761 20.49C16.1758 20.49 16.1754 20.49 16.1751 20.49C16.1748 20.49 16.1744 20.49 16.1741 20.49C16.1737 20.49 16.1734 20.49 16.173 20.49C16.1727 20.49 16.1724 20.49 16.172 20.49C16.1717 20.49 16.1713 20.49 16.171 20.49C16.1706 20.49 16.1703 20.49 16.17 20.49C16.1696 20.49 16.1693 20.49 16.1689 20.49C16.1686 20.49 16.1682 20.49 16.1679 20.49C16.1676 20.49 16.1672 20.49 16.1669 20.49C16.1665 20.49 16.1662 20.49 16.1658 20.49C16.1655 20.49 16.1652 20.49 16.1648 20.49C16.1645 20.49 16.1641 20.49 16.1638 20.49C16.1634 20.49 16.1631 20.49 16.1628 20.49C16.1624 20.49 16.1621 20.49 16.1617 20.49C16.1614 20.49 16.161 20.49 16.1607 20.49C16.1603 20.49 16.16 20.49 16.1597 20.49C16.1593 20.49 16.159 20.49 16.1586 20.49C16.1583 20.49 16.1579 20.49 16.1576 20.49C16.1573 20.49 16.1569 20.49 16.1566 20.49C16.1562 20.49 16.1559 20.49 16.1555 20.49C16.1552 20.49 16.1548 20.49 16.1545 20.49C16.1542 20.49 16.1538 20.49 16.1535 20.49C16.1531 20.49 16.1528 20.49 16.1524 20.49C16.1521 20.49 16.1517 20.49 16.1514 20.49C16.1511 20.49 16.1507 20.49 16.1504 20.49C16.15 20.49 16.1497 20.49 16.1493 20.49C16.149 20.49 16.1486 20.49 16.1483 20.49C16.148 20.49 16.1476 20.49 16.1473 20.49C16.1469 20.49 16.1466 20.49 16.1462 20.49C16.1459 20.49 16.1455 20.49 16.1452 20.49C16.1449 20.49 16.1445 20.49 16.1442 20.49C16.1438 20.49 16.1435 20.49 16.1431 20.49C16.1428 20.49 16.1424 20.49 16.1421 20.49C16.1417 20.49 16.1414 20.49 16.1411 20.49C16.1407 20.49 16.1404 20.49 16.14 20.49C16.1397 20.49 16.1393 20.49 16.139 20.49C16.1386 20.49 16.1383 20.49 16.1379 20.49C16.1376 20.49 16.1373 20.49 16.1369 20.49C16.1366 20.49 16.1362 20.49 16.1359 20.49C16.1355 20.49 16.1352 20.49 16.1348 20.49C16.1345 20.49 16.1341 20.49 16.1338 20.49C16.1335 20.49 16.1331 20.49 16.1328 20.49C16.1324 20.49 16.1321 20.49 16.1317 20.49C16.1314 20.49 16.131 20.49 16.1307 20.49C16.1303 20.49 16.13 20.49 16.1296 20.49C16.1293 20.49 16.129 20.49 16.1286 20.49C16.1283 20.49 16.1279 20.49 16.1276 20.49C16.1272 20.49 16.1269 20.49 16.1265 20.49C16.1262 20.49 16.1258 20.49 16.1255 20.49C16.1251 20.49 16.1248 20.49 16.1245 20.49C16.1241 20.49 16.1238 20.49 16.1234 20.49C16.1231 20.49 16.1227 20.49 16.1224 20.49C16.122 20.49 16.1217 20.49 16.1213 20.49C16.121 20.49 16.1206 20.49 16.1203 20.49C16.1199 20.49 16.1196 20.49 16.1192 20.49C16.1189 20.49 16.1186 20.49 16.1182 20.49C16.1179 20.49 16.1175 20.49 16.1172 20.49C16.1168 20.49 16.1165 20.49 16.1161 20.49C16.1158 20.49 16.1154 20.49 16.1151 20.49C16.1147 20.49 16.1144 20.49 16.114 20.49C16.1137 20.49 16.1133 20.49 16.113 20.49C16.1126 20.49 16.1123 20.49 16.1119 20.49C16.1116 20.49 16.1113 20.49 16.1109 20.49C16.1106 20.49 16.1102 20.49 16.1099 20.49C16.1095 20.49 16.1092 20.49 16.1088 20.49C16.1085 20.49 16.1081 20.49 16.1078 20.49C16.1074 20.49 16.1071 20.49 16.1067 20.49C16.1064 20.49 16.106 20.49 16.1057 20.49C16.1053 20.49 16.105 20.49 16.1046 20.49C16.1043 20.49 16.1039 20.49 16.1036 20.49C16.1032 20.49 16.1029 20.49 16.1025 20.49C16.1022 20.49 16.1019 20.49 16.1015 20.49C16.1012 20.49 16.1008 20.49 16.1005 20.49C16.1001 20.49 16.0998 20.49 16.0994 20.49C16.0991 20.49 16.0987 20.49 16.0984 20.49C16.098 20.49 16.0977 20.49 16.0973 20.49C16.097 20.49 16.0966 20.49 16.0963 20.49C16.0959 20.49 16.0956 20.49 16.0952 20.49C16.0949 20.49 16.0945 20.49 16.0942 20.49C16.0938 20.49 16.0935 20.49 16.0931 20.49C16.0928 20.49 16.0924 20.49 16.0921 20.49C16.0917 20.49 16.0914 20.49 16.091 20.49C16.0907 20.49 16.0903 20.49 16.09 20.49C16.0896 20.49 16.0893 20.49 16.0889 20.49C16.0886 20.49 16.0882 20.49 16.0879 20.49C16.0875 20.49 16.0872 20.49 16.0868 20.49C16.0865 20.49 16.0861 20.49 16.0858 20.49C16.0854 20.49 16.0851 20.49 16.0847 20.49C16.0844 20.49 16.084 20.49 16.0837 20.49C16.0833 20.49 16.083 20.49 16.0826 20.49C16.0823 20.49 16.0819 20.49 16.0816 20.49C16.0812 20.49 16.0809 20.49 16.0805 20.49C16.0802 20.49 16.0798 20.49 16.0795 20.49C16.0791 20.49 16.0788 20.49 16.0784 20.49C16.0781 20.49 16.0777 20.49 16.0774 20.49C16.077 20.49 16.0767 20.49 16.0763 20.49C16.076 20.49 16.0756 20.49 16.0753 20.49C16.0749 20.49 16.0746 20.49 16.0742 20.49C16.0739 20.49 16.0735 20.49 16.0732 20.49C16.0728 20.49 16.0725 20.49 16.0721 20.49C16.0718 20.49 16.0714 20.49 16.0711 20.49C16.0707 20.49 16.0704 20.49 16.07 20.49C16.0697 20.49 16.0693 20.49 16.069 20.49C16.0686 20.49 16.0682 20.49 16.0679 20.49C16.0675 20.49 16.0672 20.49 16.0668 20.49C16.0665 20.49 16.0661 20.49 16.0658 20.49C16.0654 20.49 16.0651 20.49 16.0647 20.49C16.0644 20.49 16.064 20.49 16.0637 20.49C16.0633 20.49 16.063 20.49 16.0626 20.49C16.0623 20.49 16.0619 20.49 16.0616 20.49C16.0612 20.49 16.0609 20.49 16.0605 20.49C16.0602 20.49 16.0598 20.49 16.0595 20.49C16.0591 20.49 16.0587 20.49 16.0584 20.49C16.058 20.49 16.0577 20.49 16.0573 20.49C16.057 20.49 16.0566 20.49 16.0563 20.49C16.0559 20.49 16.0556 20.49 16.0552 20.49C16.0549 20.49 16.0545 20.49 16.0542 20.49C16.0538 20.49 16.0535 20.49 16.0531 20.49C16.0528 20.49 16.0524 20.49 16.052 20.49C16.0517 20.49 16.0513 20.49 16.051 20.49C16.0506 20.49 16.0503 20.49 16.0499 20.49C16.0496 20.49 16.0492 20.49 16.0489 20.49C16.0485 20.49 16.0482 20.49 16.0478 20.49C16.0475 20.49 16.0471 20.49 16.0468 20.49C16.0464 20.49 16.046 20.49 16.0457 20.49C16.0453 20.49 16.045 20.49 16.0446 20.49C16.0443 20.49 16.0439 20.49 16.0436 20.49C16.0432 20.49 16.0429 20.49 16.0425 20.49C16.0422 20.49 16.0418 20.49 16.0415 20.49C16.0411 20.49 16.0407 20.49 16.0404 20.49C16.04 20.49 16.0397 20.49 16.0393 20.49C16.039 20.49 16.0386 20.49 16.0383 20.49C16.0379 20.49 16.0376 20.49 16.0372 20.49C16.0368 20.49 16.0365 20.49 16.0361 20.49C16.0358 20.49 16.0354 20.49 16.0351 20.49C16.0347 20.49 16.0344 20.49 16.034 20.49C16.0337 20.49 16.0333 20.49 16.033 20.49C16.0326 20.49 16.0322 20.49 16.0319 20.49C16.0315 20.49 16.0312 20.49 16.0308 20.49C16.0305 20.49 16.0301 20.49 16.0298 20.49C16.0294 20.49 16.0291 20.49 16.0287 20.49C16.0283 20.49 16.028 20.49 16.0276 20.49C16.0273 20.49 16.0269 20.49 16.0266 20.49C16.0262 20.49 16.0259 20.49 16.0255 20.49C16.0251 20.49 16.0248 20.49 16.0244 20.49C16.0241 20.49 16.0237 20.49 16.0234 20.49C16.023 20.49 16.0227 20.49 16.0223 20.49C16.022 20.49 16.0216 20.49 16.0212 20.49C16.0209 20.49 16.0205 20.49 16.0202 20.49C16.0198 20.49 16.0195 20.49 16.0191 20.49C16.0188 20.49 16.0184 20.49 16.018 20.49C16.0177 20.49 16.0173 20.49 16.017 20.49C16.0166 20.49 16.0163 20.49 16.0159 20.49C16.0155 20.49 16.0152 20.49 16.0148 20.49C16.0145 20.49 16.0141 20.49 16.0138 20.49C16.0134 20.49 16.0131 20.49 16.0127 20.49C16.0123 20.49 16.012 20.49 16.0116 20.49C16.0113 20.49 16.0109 20.49 16.0106 20.49C16.0102 20.49 16.0099 20.49 16.0095 20.49C16.0091 20.49 16.0088 20.49 16.0084 20.49C16.0081 20.49 16.0077 20.49 16.0074 20.49C16.007 20.49 16.0066 20.49 16.0063 20.49C16.0059 20.49 16.0056 20.49 16.0052 20.49C16.0049 20.49 16.0045 20.49 16.0041 20.49C16.0038 20.49 16.0034 20.49 16.0031 20.49C16.0027 20.49 16.0024 20.49 16.002 20.49C16.0016 20.49 16.0013 20.49 16.0009 20.49C16.0006 20.49 16.0002 20.49 15.9999 20.49C15.9995 20.49 15.9991 20.49 15.9988 20.49C15.9984 20.49 15.9981 20.49 15.9977 20.49C15.9974 20.49 15.997 20.49 15.9966 20.49C15.9963 20.49 15.9959 20.49 15.9956 20.49C15.9952 20.49 15.9949 20.49 15.9945 20.49C15.9941 20.49 15.9938 20.49 15.9934 20.49C15.9931 20.49 15.9927 20.49 15.9924 20.49C15.992 20.49 15.9916 20.49 15.9913 20.49C15.9909 20.49 15.9906 20.49 15.9902 20.49C15.9898 20.49 15.9895 20.49 15.9891 20.49C15.9888 20.49 15.9884 20.49 15.9881 20.49C15.9877 20.49 15.9873 20.49 15.987 20.49C15.9866 20.49 15.9863 20.49 15.9859 20.49C15.9856 20.49 15.9852 20.49 15.9848 20.49C15.9845 20.49 15.9841 20.49 15.9838 20.49C15.9834 20.49 15.983 20.49 15.9827 20.49C15.9823 20.49 15.982 20.49 15.9816 20.49C15.9812 20.49 15.9809 20.49 15.9805 20.49C15.9802 20.49 15.9798 20.49 15.9795 20.49C15.9791 20.49 15.9787 20.49 15.9784 20.49C15.978 20.49 15.9777 20.49 15.9773 20.49C15.9769 20.49 15.9766 20.49 15.9762 20.49C15.9759 20.49 15.9755 20.49 15.9751 20.49C15.9748 20.49 15.9744 20.49 15.9741 20.49C15.9737 20.49 15.9733 20.49 15.973 20.49C15.9726 20.49 15.9723 20.49 15.9719 20.49C15.9716 20.49 15.9712 20.49 15.9708 20.49C15.9705 20.49 15.9701 20.49 15.9698 20.49C15.9694 20.49 15.969 20.49 15.9687 20.49C15.9683 20.49 15.968 20.49 15.9676 20.49C15.9672 20.49 15.9669 20.49 15.9665 20.49C15.9662 20.49 15.9658 20.49 15.9654 20.49C15.9651 20.49 15.9647 20.49 15.9644 20.49C15.964 20.49 15.9636 20.49 15.9633 20.49C15.9629 20.49 15.9626 20.49 15.9622 20.49C15.9618 20.49 15.9615 20.49 15.9611 20.49C15.9608 20.49 15.9604 20.49 15.96 20.49C15.9597 20.49 15.9593 20.49 15.9589 20.49C15.9586 20.49 15.9582 20.49 15.9579 20.49C15.9575 20.49 15.9571 20.49 15.9568 20.49C15.9564 20.49 15.9561 20.49 15.9557 20.49C15.9553 20.49 15.955 20.49 15.9546 20.49C15.9543 20.49 15.9539 20.49 15.9535 20.49C15.9532 20.49 15.9528 20.49 15.9525 20.49C15.9521 20.49 15.9517 20.49 15.9514 20.49C15.951 20.49 15.9506 20.49 15.9503 20.49C15.9499 20.49 15.9496 20.49 15.9492 20.49C15.9488 20.49 15.9485 20.49 15.9481 20.49C15.9478 20.49 15.9474 20.49 15.947 20.49C15.9467 20.49 15.9463 20.49 15.9459 20.49C15.9456 20.49 15.9452 20.49 15.9449 20.49C15.9445 20.49 15.9441 20.49 15.9438 20.49C15.9434 20.49 15.9431 20.49 15.9427 20.49C15.9423 20.49 15.942 20.49 15.9416 20.49C15.9412 20.49 15.9409 20.49 15.9405 20.49C15.9402 20.49 15.9398 20.49 15.9394 20.49C15.9391 20.49 15.9387 20.49 15.9383 20.49C15.938 20.49 15.9376 20.49 15.9373 20.49C15.9369 20.49 15.9365 20.49 15.9362 20.49C15.9358 20.49 15.9354 20.49 15.9351 20.49C15.9347 20.49 15.9344 20.49 15.934 20.49C15.9336 20.49 15.9333 20.49 15.9329 20.49C15.9325 20.49 15.9322 20.49 15.9318 20.49C15.9315 20.49 15.9311 20.49 15.9307 20.49C15.9304 20.49 15.93 20.49 15.9296 20.49C15.9293 20.49 15.9289 20.49 15.9286 20.49C15.9282 20.49 15.9278 20.49 15.9275 20.49C15.9271 20.49 15.9267 20.49 15.9264 20.49C15.926 20.49 15.9257 20.49 15.9253 20.49C15.9249 20.49 15.9246 20.49 15.9242 20.49C15.9238 20.49 15.9235 20.49 15.9231 20.49C15.9227 20.49 15.9224 20.49 15.922 20.49C15.9217 20.49 15.9213 20.49 15.9209 20.49C15.9206 20.49 15.9202 20.49 15.9198 20.49C15.9195 20.49 15.9191 20.49 15.9187 20.49C15.9184 20.49 15.918 20.49 15.9177 20.49C15.9173 20.49 15.9169 20.49 15.9166 20.49C15.9162 20.49 15.9158 20.49 15.9155 20.49C15.9151 20.49 15.9147 20.49 15.9144 20.49C15.914 20.49 15.9136 20.49 15.9133 20.49C15.9129 20.49 15.9126 20.49 15.9122 20.49C15.9118 20.49 15.9115 20.49 15.9111 20.49C15.9107 20.49 15.9104 20.49 15.91 20.49V21.49V22.49C15.9104 22.49 15.9107 22.49 15.9111 22.49C15.9115 22.49 15.9118 22.49 15.9122 22.49C15.9126 22.49 15.9129 22.49 15.9133 22.49C15.9136 22.49 15.914 22.49 15.9144 22.49C15.9147 22.49 15.9151 22.49 15.9155 22.49C15.9158 22.49 15.9162 22.49 15.9166 22.49C15.9169 22.49 15.9173 22.49 15.9177 22.49C15.918 22.49 15.9184 22.49 15.9187 22.49C15.9191 22.49 15.9195 22.49 15.9198 22.49C15.9202 22.49 15.9206 22.49 15.9209 22.49C15.9213 22.49 15.9217 22.49 15.922 22.49C15.9224 22.49 15.9227 22.49 15.9231 22.49C15.9235 22.49 15.9238 22.49 15.9242 22.49C15.9246 22.49 15.9249 22.49 15.9253 22.49C15.9257 22.49 15.926 22.49 15.9264 22.49C15.9267 22.49 15.9271 22.49 15.9275 22.49C15.9278 22.49 15.9282 22.49 15.9286 22.49C15.9289 22.49 15.9293 22.49 15.9296 22.49C15.93 22.49 15.9304 22.49 15.9307 22.49C15.9311 22.49 15.9315 22.49 15.9318 22.49C15.9322 22.49 15.9325 22.49 15.9329 22.49C15.9333 22.49 15.9336 22.49 15.934 22.49C15.9344 22.49 15.9347 22.49 15.9351 22.49C15.9354 22.49 15.9358 22.49 15.9362 22.49C15.9365 22.49 15.9369 22.49 15.9373 22.49C15.9376 22.49 15.938 22.49 15.9383 22.49C15.9387 22.49 15.9391 22.49 15.9394 22.49C15.9398 22.49 15.9402 22.49 15.9405 22.49C15.9409 22.49 15.9412 22.49 15.9416 22.49C15.942 22.49 15.9423 22.49 15.9427 22.49C15.9431 22.49 15.9434 22.49 15.9438 22.49C15.9441 22.49 15.9445 22.49 15.9449 22.49C15.9452 22.49 15.9456 22.49 15.9459 22.49C15.9463 22.49 15.9467 22.49 15.947 22.49C15.9474 22.49 15.9478 22.49 15.9481 22.49C15.9485 22.49 15.9488 22.49 15.9492 22.49C15.9496 22.49 15.9499 22.49 15.9503 22.49C15.9506 22.49 15.951 22.49 15.9514 22.49C15.9517 22.49 15.9521 22.49 15.9525 22.49C15.9528 22.49 15.9532 22.49 15.9535 22.49C15.9539 22.49 15.9543 22.49 15.9546 22.49C15.955 22.49 15.9553 22.49 15.9557 22.49C15.9561 22.49 15.9564 22.49 15.9568 22.49C15.9571 22.49 15.9575 22.49 15.9579 22.49C15.9582 22.49 15.9586 22.49 15.9589 22.49C15.9593 22.49 15.9597 22.49 15.96 22.49C15.9604 22.49 15.9608 22.49 15.9611 22.49C15.9615 22.49 15.9618 22.49 15.9622 22.49C15.9626 22.49 15.9629 22.49 15.9633 22.49C15.9636 22.49 15.964 22.49 15.9644 22.49C15.9647 22.49 15.9651 22.49 15.9654 22.49C15.9658 22.49 15.9662 22.49 15.9665 22.49C15.9669 22.49 15.9672 22.49 15.9676 22.49C15.968 22.49 15.9683 22.49 15.9687 22.49C15.969 22.49 15.9694 22.49 15.9698 22.49C15.9701 22.49 15.9705 22.49 15.9708 22.49C15.9712 22.49 15.9716 22.49 15.9719 22.49C15.9723 22.49 15.9726 22.49 15.973 22.49C15.9733 22.49 15.9737 22.49 15.9741 22.49C15.9744 22.49 15.9748 22.49 15.9751 22.49C15.9755 22.49 15.9759 22.49 15.9762 22.49C15.9766 22.49 15.9769 22.49 15.9773 22.49C15.9777 22.49 15.978 22.49 15.9784 22.49C15.9787 22.49 15.9791 22.49 15.9795 22.49C15.9798 22.49 15.9802 22.49 15.9805 22.49C15.9809 22.49 15.9812 22.49 15.9816 22.49C15.982 22.49 15.9823 22.49 15.9827 22.49C15.983 22.49 15.9834 22.49 15.9838 22.49C15.9841 22.49 15.9845 22.49 15.9848 22.49C15.9852 22.49 15.9856 22.49 15.9859 22.49C15.9863 22.49 15.9866 22.49 15.987 22.49C15.9873 22.49 15.9877 22.49 15.9881 22.49C15.9884 22.49 15.9888 22.49 15.9891 22.49C15.9895 22.49 15.9898 22.49 15.9902 22.49C15.9906 22.49 15.9909 22.49 15.9913 22.49C15.9916 22.49 15.992 22.49 15.9924 22.49C15.9927 22.49 15.9931 22.49 15.9934 22.49C15.9938 22.49 15.9941 22.49 15.9945 22.49C15.9949 22.49 15.9952 22.49 15.9956 22.49C15.9959 22.49 15.9963 22.49 15.9966 22.49C15.997 22.49 15.9974 22.49 15.9977 22.49C15.9981 22.49 15.9984 22.49 15.9988 22.49C15.9991 22.49 15.9995 22.49 15.9999 22.49C16.0002 22.49 16.0006 22.49 16.0009 22.49C16.0013 22.49 16.0016 22.49 16.002 22.49C16.0024 22.49 16.0027 22.49 16.0031 22.49C16.0034 22.49 16.0038 22.49 16.0041 22.49C16.0045 22.49 16.0049 22.49 16.0052 22.49C16.0056 22.49 16.0059 22.49 16.0063 22.49C16.0066 22.49 16.007 22.49 16.0074 22.49C16.0077 22.49 16.0081 22.49 16.0084 22.49C16.0088 22.49 16.0091 22.49 16.0095 22.49C16.0099 22.49 16.0102 22.49 16.0106 22.49C16.0109 22.49 16.0113 22.49 16.0116 22.49C16.012 22.49 16.0123 22.49 16.0127 22.49C16.0131 22.49 16.0134 22.49 16.0138 22.49C16.0141 22.49 16.0145 22.49 16.0148 22.49C16.0152 22.49 16.0155 22.49 16.0159 22.49C16.0163 22.49 16.0166 22.49 16.017 22.49C16.0173 22.49 16.0177 22.49 16.018 22.49C16.0184 22.49 16.0188 22.49 16.0191 22.49C16.0195 22.49 16.0198 22.49 16.0202 22.49C16.0205 22.49 16.0209 22.49 16.0212 22.49C16.0216 22.49 16.022 22.49 16.0223 22.49C16.0227 22.49 16.023 22.49 16.0234 22.49C16.0237 22.49 16.0241 22.49 16.0244 22.49C16.0248 22.49 16.0251 22.49 16.0255 22.49C16.0259 22.49 16.0262 22.49 16.0266 22.49C16.0269 22.49 16.0273 22.49 16.0276 22.49C16.028 22.49 16.0283 22.49 16.0287 22.49C16.0291 22.49 16.0294 22.49 16.0298 22.49C16.0301 22.49 16.0305 22.49 16.0308 22.49C16.0312 22.49 16.0315 22.49 16.0319 22.49C16.0322 22.49 16.0326 22.49 16.033 22.49C16.0333 22.49 16.0337 22.49 16.034 22.49C16.0344 22.49 16.0347 22.49 16.0351 22.49C16.0354 22.49 16.0358 22.49 16.0361 22.49C16.0365 22.49 16.0368 22.49 16.0372 22.49C16.0376 22.49 16.0379 22.49 16.0383 22.49C16.0386 22.49 16.039 22.49 16.0393 22.49C16.0397 22.49 16.04 22.49 16.0404 22.49C16.0407 22.49 16.0411 22.49 16.0415 22.49C16.0418 22.49 16.0422 22.49 16.0425 22.49C16.0429 22.49 16.0432 22.49 16.0436 22.49C16.0439 22.49 16.0443 22.49 16.0446 22.49C16.045 22.49 16.0453 22.49 16.0457 22.49C16.046 22.49 16.0464 22.49 16.0468 22.49C16.0471 22.49 16.0475 22.49 16.0478 22.49C16.0482 22.49 16.0485 22.49 16.0489 22.49C16.0492 22.49 16.0496 22.49 16.0499 22.49C16.0503 22.49 16.0506 22.49 16.051 22.49C16.0513 22.49 16.0517 22.49 16.052 22.49C16.0524 22.49 16.0528 22.49 16.0531 22.49C16.0535 22.49 16.0538 22.49 16.0542 22.49C16.0545 22.49 16.0549 22.49 16.0552 22.49C16.0556 22.49 16.0559 22.49 16.0563 22.49C16.0566 22.49 16.057 22.49 16.0573 22.49C16.0577 22.49 16.058 22.49 16.0584 22.49C16.0587 22.49 16.0591 22.49 16.0595 22.49C16.0598 22.49 16.0602 22.49 16.0605 22.49C16.0609 22.49 16.0612 22.49 16.0616 22.49C16.0619 22.49 16.0623 22.49 16.0626 22.49C16.063 22.49 16.0633 22.49 16.0637 22.49C16.064 22.49 16.0644 22.49 16.0647 22.49C16.0651 22.49 16.0654 22.49 16.0658 22.49C16.0661 22.49 16.0665 22.49 16.0668 22.49C16.0672 22.49 16.0675 22.49 16.0679 22.49C16.0682 22.49 16.0686 22.49 16.069 22.49C16.0693 22.49 16.0697 22.49 16.07 22.49C16.0704 22.49 16.0707 22.49 16.0711 22.49C16.0714 22.49 16.0718 22.49 16.0721 22.49C16.0725 22.49 16.0728 22.49 16.0732 22.49C16.0735 22.49 16.0739 22.49 16.0742 22.49C16.0746 22.49 16.0749 22.49 16.0753 22.49C16.0756 22.49 16.076 22.49 16.0763 22.49C16.0767 22.49 16.077 22.49 16.0774 22.49C16.0777 22.49 16.0781 22.49 16.0784 22.49C16.0788 22.49 16.0791 22.49 16.0795 22.49C16.0798 22.49 16.0802 22.49 16.0805 22.49C16.0809 22.49 16.0812 22.49 16.0816 22.49C16.0819 22.49 16.0823 22.49 16.0826 22.49C16.083 22.49 16.0833 22.49 16.0837 22.49C16.084 22.49 16.0844 22.49 16.0847 22.49C16.0851 22.49 16.0854 22.49 16.0858 22.49C16.0861 22.49 16.0865 22.49 16.0868 22.49C16.0872 22.49 16.0875 22.49 16.0879 22.49C16.0882 22.49 16.0886 22.49 16.0889 22.49C16.0893 22.49 16.0896 22.49 16.09 22.49C16.0903 22.49 16.0907 22.49 16.091 22.49C16.0914 22.49 16.0917 22.49 16.0921 22.49C16.0924 22.49 16.0928 22.49 16.0931 22.49C16.0935 22.49 16.0938 22.49 16.0942 22.49C16.0945 22.49 16.0949 22.49 16.0952 22.49C16.0956 22.49 16.0959 22.49 16.0963 22.49C16.0966 22.49 16.097 22.49 16.0973 22.49C16.0977 22.49 16.098 22.49 16.0984 22.49C16.0987 22.49 16.0991 22.49 16.0994 22.49C16.0998 22.49 16.1001 22.49 16.1005 22.49C16.1008 22.49 16.1012 22.49 16.1015 22.49C16.1019 22.49 16.1022 22.49 16.1025 22.49C16.1029 22.49 16.1032 22.49 16.1036 22.49C16.1039 22.49 16.1043 22.49 16.1046 22.49C16.105 22.49 16.1053 22.49 16.1057 22.49C16.106 22.49 16.1064 22.49 16.1067 22.49C16.1071 22.49 16.1074 22.49 16.1078 22.49C16.1081 22.49 16.1085 22.49 16.1088 22.49C16.1092 22.49 16.1095 22.49 16.1099 22.49C16.1102 22.49 16.1106 22.49 16.1109 22.49C16.1113 22.49 16.1116 22.49 16.1119 22.49C16.1123 22.49 16.1126 22.49 16.113 22.49C16.1133 22.49 16.1137 22.49 16.114 22.49C16.1144 22.49 16.1147 22.49 16.1151 22.49C16.1154 22.49 16.1158 22.49 16.1161 22.49C16.1165 22.49 16.1168 22.49 16.1172 22.49C16.1175 22.49 16.1179 22.49 16.1182 22.49C16.1186 22.49 16.1189 22.49 16.1192 22.49C16.1196 22.49 16.1199 22.49 16.1203 22.49C16.1206 22.49 16.121 22.49 16.1213 22.49C16.1217 22.49 16.122 22.49 16.1224 22.49C16.1227 22.49 16.1231 22.49 16.1234 22.49C16.1238 22.49 16.1241 22.49 16.1245 22.49C16.1248 22.49 16.1251 22.49 16.1255 22.49C16.1258 22.49 16.1262 22.49 16.1265 22.49C16.1269 22.49 16.1272 22.49 16.1276 22.49C16.1279 22.49 16.1283 22.49 16.1286 22.49C16.129 22.49 16.1293 22.49 16.1296 22.49C16.13 22.49 16.1303 22.49 16.1307 22.49C16.131 22.49 16.1314 22.49 16.1317 22.49C16.1321 22.49 16.1324 22.49 16.1328 22.49C16.1331 22.49 16.1335 22.49 16.1338 22.49C16.1341 22.49 16.1345 22.49 16.1348 22.49C16.1352 22.49 16.1355 22.49 16.1359 22.49C16.1362 22.49 16.1366 22.49 16.1369 22.49C16.1373 22.49 16.1376 22.49 16.1379 22.49C16.1383 22.49 16.1386 22.49 16.139 22.49C16.1393 22.49 16.1397 22.49 16.14 22.49C16.1404 22.49 16.1407 22.49 16.1411 22.49C16.1414 22.49 16.1417 22.49 16.1421 22.49C16.1424 22.49 16.1428 22.49 16.1431 22.49C16.1435 22.49 16.1438 22.49 16.1442 22.49C16.1445 22.49 16.1449 22.49 16.1452 22.49C16.1455 22.49 16.1459 22.49 16.1462 22.49C16.1466 22.49 16.1469 22.49 16.1473 22.49C16.1476 22.49 16.148 22.49 16.1483 22.49C16.1486 22.49 16.149 22.49 16.1493 22.49C16.1497 22.49 16.15 22.49 16.1504 22.49C16.1507 22.49 16.1511 22.49 16.1514 22.49C16.1517 22.49 16.1521 22.49 16.1524 22.49C16.1528 22.49 16.1531 22.49 16.1535 22.49C16.1538 22.49 16.1542 22.49 16.1545 22.49C16.1548 22.49 16.1552 22.49 16.1555 22.49C16.1559 22.49 16.1562 22.49 16.1566 22.49C16.1569 22.49 16.1573 22.49 16.1576 22.49C16.1579 22.49 16.1583 22.49 16.1586 22.49C16.159 22.49 16.1593 22.49 16.1597 22.49C16.16 22.49 16.1603 22.49 16.1607 22.49C16.161 22.49 16.1614 22.49 16.1617 22.49C16.1621 22.49 16.1624 22.49 16.1628 22.49C16.1631 22.49 16.1634 22.49 16.1638 22.49C16.1641 22.49 16.1645 22.49 16.1648 22.49C16.1652 22.49 16.1655 22.49 16.1658 22.49C16.1662 22.49 16.1665 22.49 16.1669 22.49C16.1672 22.49 16.1676 22.49 16.1679 22.49C16.1682 22.49 16.1686 22.49 16.1689 22.49C16.1693 22.49 16.1696 22.49 16.17 22.49C16.1703 22.49 16.1706 22.49 16.171 22.49C16.1713 22.49 16.1717 22.49 16.172 22.49C16.1724 22.49 16.1727 22.49 16.173 22.49C16.1734 22.49 16.1737 22.49 16.1741 22.49C16.1744 22.49 16.1748 22.49 16.1751 22.49C16.1754 22.49 16.1758 22.49 16.1761 22.49C16.1765 22.49 16.1768 22.49 16.1771 22.49C16.1775 22.49 16.1778 22.49 16.1782 22.49C16.1785 22.49 16.1789 22.49 16.1792 22.49C16.1795 22.49 16.1799 22.49 16.1802 22.49C16.1806 22.49 16.1809 22.49 16.1813 22.49C16.1816 22.49 16.1819 22.49 16.1823 22.49C16.1826 22.49 16.183 22.49 16.1833 22.49C16.1836 22.49 16.184 22.49 16.1843 22.49C16.1847 22.49 16.185 22.49 16.1853 22.49C16.1857 22.49 16.186 22.49 16.1864 22.49C16.1867 22.49 16.1871 22.49 16.1874 22.49C16.1877 22.49 16.1881 22.49 16.1884 22.49C16.1888 22.49 16.1891 22.49 16.1894 22.49C16.1898 22.49 16.1901 22.49 16.1905 22.49C16.1908 22.49 16.1912 22.49 16.1915 22.49C16.1918 22.49 16.1922 22.49 16.1925 22.49C16.1929 22.49 16.1932 22.49 16.1935 22.49C16.1939 22.49 16.1942 22.49 16.1946 22.49C16.1949 22.49 16.1952 22.49 16.1956 22.49C16.1959 22.49 16.1963 22.49 16.1966 22.49C16.1969 22.49 16.1973 22.49 16.1976 22.49C16.198 22.49 16.1983 22.49 16.1986 22.49C16.199 22.49 16.1993 22.49 16.1997 22.49C16.2 22.49 16.2003 22.49 16.2007 22.49C16.201 22.49 16.2014 22.49 16.2017 22.49C16.202 22.49 16.2024 22.49 16.2027 22.49C16.2031 22.49 16.2034 22.49 16.2037 22.49C16.2041 22.49 16.2044 22.49 16.2048 22.49C16.2051 22.49 16.2054 22.49 16.2058 22.49C16.2061 22.49 16.2065 22.49 16.2068 22.49C16.2071 22.49 16.2075 22.49 16.2078 22.49C16.2082 22.49 16.2085 22.49 16.2088 22.49C16.2092 22.49 16.2095 22.49 16.2099 22.49C16.2102 22.49 16.2105 22.49 16.2109 22.49C16.2112 22.49 16.2116 22.49 16.2119 22.49C16.2122 22.49 16.2126 22.49 16.2129 22.49C16.2132 22.49 16.2136 22.49 16.2139 22.49C16.2143 22.49 16.2146 22.49 16.2149 22.49C16.2153 22.49 16.2156 22.49 16.216 22.49C16.2163 22.49 16.2166 22.49 16.217 22.49C16.2173 22.49 16.2177 22.49 16.218 22.49C16.2183 22.49 16.2187 22.49 16.219 22.49C16.2193 22.49 16.2197 22.49 16.22 22.49C16.2204 22.49 16.2207 22.49 16.221 22.49C16.2214 22.49 16.2217 22.49 16.2221 22.49C16.2224 22.49 16.2227 22.49 16.2231 22.49C16.2234 22.49 16.2237 22.49 16.2241 22.49C16.2244 22.49 16.2248 22.49 16.2251 22.49C16.2254 22.49 16.2258 22.49 16.2261 22.49C16.2264 22.49 16.2268 22.49 16.2271 22.49C16.2275 22.49 16.2278 22.49 16.2281 22.49C16.2285 22.49 16.2288 22.49 16.2291 22.49C16.2295 22.49 16.2298 22.49 16.2302 22.49C16.2305 22.49 16.2308 22.49 16.2312 22.49C16.2315 22.49 16.2318 22.49 16.2322 22.49C16.2325 22.49 16.2329 22.49 16.2332 22.49C16.2335 22.49 16.2339 22.49 16.2342 22.49C16.2345 22.49 16.2349 22.49 16.2352 22.49C16.2356 22.49 16.2359 22.49 16.2362 22.49C16.2366 22.49 16.2369 22.49 16.2372 22.49C16.2376 22.49 16.2379 22.49 16.2383 22.49C16.2386 22.49 16.2389 22.49 16.2393 22.49C16.2396 22.49 16.2399 22.49 16.2403 22.49C16.2406 22.49 16.2409 22.49 16.2413 22.49C16.2416 22.49 16.242 22.49 16.2423 22.49C16.2426 22.49 16.243 22.49 16.2433 22.49C16.2436 22.49 16.244 22.49 16.2443 22.49C16.2446 22.49 16.245 22.49 16.2453 22.49C16.2457 22.49 16.246 22.49 16.2463 22.49C16.2467 22.49 16.247 22.49 16.2473 22.49C16.2477 22.49 16.248 22.49 16.2483 22.49C16.2487 22.49 16.249 22.49 16.2494 22.49C16.2497 22.49 16.25 22.49 16.2504 22.49C16.2507 22.49 16.251 22.49 16.2514 22.49C16.2517 22.49 16.252 22.49 16.2524 22.49C16.2527 22.49 16.253 22.49 16.2534 22.49C16.2537 22.49 16.2541 22.49 16.2544 22.49C16.2547 22.49 16.2551 22.49 16.2554 22.49C16.2557 22.49 16.2561 22.49 16.2564 22.49C16.2567 22.49 16.2571 22.49 16.2574 22.49C16.2577 22.49 16.2581 22.49 16.2584 22.49C16.2587 22.49 16.2591 22.49 16.2594 22.49C16.2597 22.49 16.2601 22.49 16.2604 22.49C16.2608 22.49 16.2611 22.49 16.2614 22.49C16.2618 22.49 16.2621 22.49 16.2624 22.49C16.2628 22.49 16.2631 22.49 16.2634 22.49C16.2638 22.49 16.2641 22.49 16.2644 22.49C16.2648 22.49 16.2651 22.49 16.2654 22.49C16.2658 22.49 16.2661 22.49 16.2664 22.49C16.2668 22.49 16.2671 22.49 16.2674 22.49C16.2678 22.49 16.2681 22.49 16.2684 22.49C16.2688 22.49 16.2691 22.49 16.2694 22.49C16.2698 22.49 16.2701 22.49 16.2705 22.49C16.2708 22.49 16.2711 22.49 16.2715 22.49C16.2718 22.49 16.2721 22.49 16.2725 22.49C16.2728 22.49 16.2731 22.49 16.2735 22.49C16.2738 22.49 16.2741 22.49 16.2745 22.49C16.2748 22.49 16.2751 22.49 16.2755 22.49C16.2758 22.49 16.2761 22.49 16.2765 22.49C16.2768 22.49 16.2771 22.49 16.2775 22.49C16.2778 22.49 16.2781 22.49 16.2785 22.49C16.2788 22.49 16.2791 22.49 16.2795 22.49C16.2798 22.49 16.2801 22.49 16.2805 22.49C16.2808 22.49 16.2811 22.49 16.2815 22.49C16.2818 22.49 16.2821 22.49 16.2825 22.49C16.2828 22.49 16.2831 22.49 16.2835 22.49C16.2838 22.49 16.2841 22.49 16.2845 22.49C16.2848 22.49 16.2851 22.49 16.2854 22.49C16.2858 22.49 16.2861 22.49 16.2864 22.49C16.2868 22.49 16.2871 22.49 16.2874 22.49C16.2878 22.49 16.2881 22.49 16.2884 22.49C16.2888 22.49 16.2891 22.49 16.2894 22.49C16.2898 22.49 16.2901 22.49 16.2904 22.49C16.2908 22.49 16.2911 22.49 16.2914 22.49C16.2918 22.49 16.2921 22.49 16.2924 22.49C16.2928 22.49 16.2931 22.49 16.2934 22.49C16.2938 22.49 16.2941 22.49 16.2944 22.49C16.2948 22.49 16.2951 22.49 16.2954 22.49C16.2957 22.49 16.2961 22.49 16.2964 22.49C16.2967 22.49 16.2971 22.49 16.2974 22.49C16.2977 22.49 16.2981 22.49 16.2984 22.49C16.2987 22.49 16.2991 22.49 16.2994 22.49C16.2997 22.49 16.3001 22.49 16.3004 22.49C16.3007 22.49 16.301 22.49 16.3014 22.49C16.3017 22.49 16.302 22.49 16.3024 22.49C16.3027 22.49 16.303 22.49 16.3034 22.49C16.3037 22.49 16.304 22.49 16.3044 22.49C16.3047 22.49 16.305 22.49 16.3054 22.49C16.3057 22.49 16.306 22.49 16.3063 22.49C16.3067 22.49 16.307 22.49 16.3073 22.49C16.3077 22.49 16.308 22.49 16.3083 22.49C16.3087 22.49 16.309 22.49 16.3093 22.49C16.3097 22.49 16.31 22.49 16.3103 22.49C16.3106 22.49 16.311 22.49 16.3113 22.49C16.3116 22.49 16.312 22.49 16.3123 22.49C16.3126 22.49 16.313 22.49 16.3133 22.49C16.3136 22.49 16.3139 22.49 16.3143 22.49C16.3146 22.49 16.3149 22.49 16.3153 22.49C16.3156 22.49 16.3159 22.49 16.3163 22.49C16.3166 22.49 16.3169 22.49 16.3172 22.49C16.3176 22.49 16.3179 22.49 16.3182 22.49C16.3186 22.49 16.3189 22.49 16.3192 22.49C16.3196 22.49 16.3199 22.49 16.3202 22.49C16.3205 22.49 16.3209 22.49 16.3212 22.49C16.3215 22.49 16.3219 22.49 16.3222 22.49C16.3225 22.49 16.3228 22.49 16.3232 22.49C16.3235 22.49 16.3238 22.49 16.3242 22.49C16.3245 22.49 16.3248 22.49 16.3252 22.49C16.3255 22.49 16.3258 22.49 16.3261 22.49C16.3265 22.49 16.3268 22.49 16.3271 22.49C16.3275 22.49 16.3278 22.49 16.3281 22.49C16.3284 22.49 16.3288 22.49 16.3291 22.49C16.3294 22.49 16.3298 22.49 16.3301 22.49C16.3304 22.49 16.3307 22.49 16.3311 22.49C16.3314 22.49 16.3317 22.49 16.3321 22.49C16.3324 22.49 16.3327 22.49 16.333 22.49C16.3334 22.49 16.3337 22.49 16.334 22.49C16.3344 22.49 16.3347 22.49 16.335 22.49C16.3353 22.49 16.3357 22.49 16.336 22.49C16.3363 22.49 16.3367 22.49 16.337 22.49C16.3373 22.49 16.3376 22.49 16.338 22.49C16.3383 22.49 16.3386 22.49 16.3389 22.49C16.3393 22.49 16.3396 22.49 16.3399 22.49C16.3403 22.49 16.3406 22.49 16.3409 22.49C16.3412 22.49 16.3416 22.49 16.3419 22.49C16.3422 22.49 16.3426 22.49 16.3429 22.49C16.3432 22.49 16.3435 22.49 16.3439 22.49C16.3442 22.49 16.3445 22.49 16.3448 22.49C16.3452 22.49 16.3455 22.49 16.3458 22.49C16.3462 22.49 16.3465 22.49 16.3468 22.49C16.3471 22.49 16.3475 22.49 16.3478 22.49C16.3481 22.49 16.3484 22.49 16.3488 22.49C16.3491 22.49 16.3494 22.49 16.3497 22.49C16.3501 22.49 16.3504 22.49 16.3507 22.49C16.3511 22.49 16.3514 22.49 16.3517 22.49C16.352 22.49 16.3524 22.49 16.3527 22.49C16.353 22.49 16.3533 22.49 16.3537 22.49C16.354 22.49 16.3543 22.49 16.3546 22.49C16.355 22.49 16.3553 22.49 16.3556 22.49C16.356 22.49 16.3563 22.49 16.3566 22.49C16.3569 22.49 16.3573 22.49 16.3576 22.49C16.3579 22.49 16.3582 22.49 16.3586 22.49C16.3589 22.49 16.3592 22.49 16.3595 22.49C16.3599 22.49 16.3602 22.49 16.3605 22.49C16.3608 22.49 16.3612 22.49 16.3615 22.49C16.3618 22.49 16.3621 22.49 16.3625 22.49C16.3628 22.49 16.3631 22.49 16.3634 22.49C16.3638 22.49 16.3641 22.49 16.3644 22.49C16.3648 22.49 16.3651 22.49 16.3654 22.49C16.3657 22.49 16.3661 22.49 16.3664 22.49C16.3667 22.49 16.367 22.49 16.3674 22.49C16.3677 22.49 16.368 22.49 16.3683 22.49C16.3687 22.49 16.369 22.49 16.3693 22.49C16.3696 22.49 16.37 22.49 16.3703 22.49C16.3706 22.49 16.3709 22.49 16.3713 22.49C16.3716 22.49 16.3719 22.49 16.3722 22.49C16.3726 22.49 16.3729 22.49 16.3732 22.49C16.3735 22.49 16.3739 22.49 16.3742 22.49C16.3745 22.49 16.3748 22.49 16.3752 22.49C16.3755 22.49 16.3758 22.49 16.3761 22.49C16.3764 22.49 16.3768 22.49 16.3771 22.49C16.3774 22.49 16.3777 22.49 16.3781 22.49C16.3784 22.49 16.3787 22.49 16.379 22.49C16.3794 22.49 16.3797 22.49 16.38 22.49C16.3803 22.49 16.3807 22.49 16.381 22.49C16.3813 22.49 16.3816 22.49 16.382 22.49C16.3823 22.49 16.3826 22.49 16.3829 22.49C16.3833 22.49 16.3836 22.49 16.3839 22.49C16.3842 22.49 16.3846 22.49 16.3849 22.49C16.3852 22.49 16.3855 22.49 16.3858 22.49C16.3862 22.49 16.3865 22.49 16.3868 22.49C16.3871 22.49 16.3875 22.49 16.3878 22.49C16.3881 22.49 16.3884 22.49 16.3888 22.49C16.3891 22.49 16.3894 22.49 16.3897 22.49C16.39 22.49 16.3904 22.49 16.3907 22.49C16.391 22.49 16.3913 22.49 16.3917 22.49C16.392 22.49 16.3923 22.49 16.3926 22.49C16.393 22.49 16.3933 22.49 16.3936 22.49C16.3939 22.49 16.3942 22.49 16.3946 22.49C16.3949 22.49 16.3952 22.49 16.3955 22.49C16.3959 22.49 16.3962 22.49 16.3965 22.49C16.3968 22.49 16.3972 22.49 16.3975 22.49C16.3978 22.49 16.3981 22.49 16.3984 22.49C16.3988 22.49 16.3991 22.49 16.3994 22.49C16.3997 22.49 16.4001 22.49 16.4004 22.49C16.4007 22.49 16.401 22.49 16.4013 22.49C16.4017 22.49 16.402 22.49 16.4023 22.49C16.4026 22.49 16.403 22.49 16.4033 22.49C16.4036 22.49 16.4039 22.49 16.4042 22.49C16.4046 22.49 16.4049 22.49 16.4052 22.49C16.4055 22.49 16.4058 22.49 16.4062 22.49C16.4065 22.49 16.4068 22.49 16.4071 22.49C16.4075 22.49 16.4078 22.49 16.4081 22.49C16.4084 22.49 16.4087 22.49 16.4091 22.49C16.4094 22.49 16.4097 22.49 16.41 22.49C16.4103 22.49 16.4107 22.49 16.411 22.49C16.4113 22.49 16.4116 22.49 16.412 22.49C16.4123 22.49 16.4126 22.49 16.4129 22.49C16.4132 22.49 16.4136 22.49 16.4139 22.49C16.4142 22.49 16.4145 22.49 16.4148 22.49C16.4152 22.49 16.4155 22.49 16.4158 22.49C16.4161 22.49 16.4164 22.49 16.4168 22.49C16.4171 22.49 16.4174 22.49 16.4177 22.49C16.4181 22.49 16.4184 22.49 16.4187 22.49C16.419 22.49 16.4193 22.49 16.4197 22.49C16.42 22.49 16.4203 22.49 16.4206 22.49C16.4209 22.49 16.4213 22.49 16.4216 22.49C16.4219 22.49 16.4222 22.49 16.4225 22.49C16.4229 22.49 16.4232 22.49 16.4235 22.49C16.4238 22.49 16.4241 22.49 16.4245 22.49C16.4248 22.49 16.4251 22.49 16.4254 22.49C16.4257 22.49 16.4261 22.49 16.4264 22.49C16.4267 22.49 16.427 22.49 16.4273 22.49C16.4277 22.49 16.428 22.49 16.4283 22.49C16.4286 22.49 16.4289 22.49 16.4293 22.49C16.4296 22.49 16.4299 22.49 16.4302 22.49C16.4305 22.49 16.4309 22.49 16.4312 22.49C16.4315 22.49 16.4318 22.49 16.4321 22.49C16.4324 22.49 16.4328 22.49 16.4331 22.49C16.4334 22.49 16.4337 22.49 16.434 22.49C16.4344 22.49 16.4347 22.49 16.435 22.49V21.49ZM15.91 21.49V20.49C15.6989 20.49 15.4883 20.5051 15.2786 20.5351L15.42 21.525L15.5614 22.5149C15.6784 22.4982 15.7945 22.49 15.91 22.49V21.49ZM15.42 21.525L14.5158 21.0978C13.8081 22.5958 13.2673 23.8699 12.9014 24.9127C12.545 25.9284 12.32 26.818 12.32 27.51H13.32H14.32C14.32 27.1753 14.445 26.5541 14.7886 25.5748C15.1227 24.6226 15.6319 23.4175 16.3242 21.9522L15.42 21.525ZM13.32 27.51H12.32C12.32 27.6793 12.3352 27.8927 12.4063 28.1062L13.355 27.79L14.3037 27.4738C14.3109 27.4955 14.3151 27.5125 14.3175 27.5236C14.3199 27.5347 14.3208 27.5416 14.321 27.5435C14.3214 27.5463 14.32 27.5363 14.32 27.51H13.32ZM13.355 27.79L12.4063 28.1062C12.3991 28.0845 12.3949 28.0675 12.3925 28.0564C12.3901 28.0453 12.3892 28.0384 12.389 28.0365C12.3886 28.0337 12.39 28.0437 12.39 28.07H13.39H14.39C14.39 27.9007 14.3748 27.6873 14.3037 27.4738L13.355 27.79ZM13.39 28.07H12.39C12.39 28.1045 12.3792 27.944 12.5304 27.7653C12.7086 27.5546 12.9314 27.525 13.005 27.525V28.525V29.525C13.3353 29.525 13.7505 29.4195 14.0571 29.0572C14.3367 28.7269 14.39 28.3388 14.39 28.07H13.39ZM13.005 28.525V27.525C13.0553 27.525 13.1479 27.5368 13.2503 27.5944C13.3536 27.6525 13.4152 27.7282 13.4453 27.7789C13.4716 27.8233 13.4689 27.8395 13.461 27.7997C13.4535 27.7614 13.445 27.6911 13.445 27.58H12.445H11.445C11.445 27.9611 11.4956 28.412 11.7247 28.7986C12.0024 29.2672 12.4737 29.525 13.005 29.525V28.525ZM12.445 27.58H13.445C13.445 27.2069 13.5577 26.5666 13.8486 25.6027C14.1333 24.6593 14.5665 23.4757 15.1548 22.0454L14.23 21.665L13.3052 21.2846C12.7035 22.7476 12.2442 23.9965 11.9339 25.0248C11.6298 26.0326 11.445 26.9031 11.445 27.58H12.445ZM14.23 21.665L14.0668 20.6784C12.4108 20.9523 11.0333 21.4918 10.0598 22.3921C9.05457 23.3217 8.575 24.5484 8.575 25.97H9.575H10.575C10.575 25.0349 10.8713 24.3658 11.4177 23.8604C11.9959 23.3257 12.9459 22.891 14.3932 22.6516L14.23 21.665ZM9.575 25.97H8.575C8.575 27.5961 9.72029 28.7029 11.3053 29.4044L11.71 28.49L12.1147 27.5756C10.853 27.0171 10.575 26.4439 10.575 25.97H9.575ZM11.71 28.49L11.3092 29.4062C12.5546 29.951 13.8576 30.225 15.21 30.225V29.225V28.225C14.1357 28.225 13.1054 28.009 12.1108 27.5738L11.71 28.49Z" fill="white"/>
</g>
<defs>
<filter id="filter0_d_71_112" x="3.03516" y="7.29492" width="32.4355" height="31.7002" filterUnits="userSpaceOnUse" color-interpolation-filters="sRGB">
<feFlood flood-opacity="0" result="BackgroundImageFix"/>
<feColorMatrix in="SourceAlpha" type="matrix" values="0 0 0 0 0 0 0 0 0 0 0 0 0 0 0 0 0 0 127 0" result="hardAlpha"/>
<feOffset dy="4"/>
<feGaussianBlur stdDeviation="2"/>
<feComposite in2="hardAlpha" operator="out"/>
<feColorMatrix type="matrix" values="0 0 0 0 0 0 0 0 0 0 0 0 0 0 0 0 0 0 0.5 0"/>
<feBlend mode="normal" in2="BackgroundImageFix" result="effect1_dropShadow_71_112"/>
<feBlend mode="normal" in="SourceGraphic" in2="effect1_dropShadow_71_112" result="shape"/>
</filter>
<linearGradient id="paint0_linear_71_112" x1="0" y1="20" x2="40" y2="20" gradientUnits="userSpaceOnUse">
<stop stop-color="#00BBA7"/>
<stop offset="1" stop-color="#00B8DB"/>
</linearGradient>
</defs>
</svg>
