<svg width="40" height="40" viewBox="0 0 40 40" fill="none" xmlns="http://www.w3.org/2000/svg">
<path d="M35.908 26.2954C35.908 26.2954 35.8542 25.9704 35.8236 25.9742L29.9414 26.542C29.7152 26.563 29.5039 26.6638 29.3453 26.8264C29.1867 26.9891 29.0911 27.2028 29.0758 27.4295L28.9145 29.746L24.3627 30.071L24.0539 27.971C24.0189 27.7438 23.9041 27.5365 23.7299 27.3864C23.5558 27.2364 23.3338 27.1533 23.1039 27.1523H16.8958C16.6659 27.1534 16.444 27.2365 16.27 27.3865C16.0959 27.5366 15.9811 27.7439 15.9461 27.971L15.6373 30.071L11.0855 29.746L10.9242 27.4292C10.9089 27.2025 10.8133 26.9887 10.6547 26.8261C10.4961 26.6635 10.2848 26.5627 10.0586 26.5417L4.17266 25.9742C4.14328 25.9704 4.12016 26.2954 4.08953 26.2954L4.08203 27.5685L9.06766 28.3729L9.23016 30.7095C9.24723 30.9396 9.34628 31.1559 9.50931 31.3191C9.67234 31.4824 9.88853 31.5818 10.1186 31.5992L16.387 32.0473C16.4112 32.0487 16.4347 32.0496 16.4577 32.0498C16.6871 32.0481 16.9084 31.9647 17.082 31.8146C17.2556 31.6645 17.37 31.4575 17.4048 31.2307L17.7236 29.0698H22.2767L22.5955 31.2307C22.6322 31.4693 22.757 31.6855 22.9452 31.8366C23.1335 31.9877 23.3715 32.0629 23.6123 32.0473L29.8817 31.5992C30.1118 31.5818 30.3281 31.4825 30.4912 31.3192C30.6543 31.156 30.7534 30.9396 30.7705 30.7095L30.933 28.3729L35.9158 27.5648L35.908 26.2954Z" fill="white"/>
<path d="M4.08938 16.6943V26.2953C4.1075 26.2953 4.125 26.296 4.14187 26.2974L10.0281 26.8656C10.1772 26.8801 10.3163 26.9469 10.4209 27.0541C10.5254 27.1614 10.5886 27.3021 10.5994 27.4515L10.7812 30.0503L15.9144 30.4165L16.2684 28.019C16.2906 27.8685 16.3662 27.7309 16.4813 27.6315C16.5964 27.532 16.7435 27.4772 16.8956 27.4771H23.1044C23.2565 27.4772 23.4036 27.532 23.5187 27.6315C23.6338 27.7309 23.7094 27.8685 23.7316 28.019L24.0856 30.4165L29.22 30.0503L29.4006 27.4515C29.4114 27.3021 29.4746 27.1614 29.5791 27.0541C29.6837 26.9469 29.8228 26.8801 29.9719 26.8656L35.8556 26.2978C35.8727 26.2963 35.8902 26.2956 35.9081 26.2956V25.5281H35.9106V16.6937C36.7394 15.6515 37.5231 14.5003 38.125 13.5324C37.2059 11.9674 36.0803 10.5699 34.8766 9.27463C33.7663 9.83658 32.6899 10.4631 31.6528 11.1509C31.1403 10.6406 30.5641 10.2243 29.9966 9.78838C29.4397 9.3415 28.8122 9.01338 28.2166 8.63119C28.3934 7.3115 28.4816 6.01275 28.5166 4.6565C26.9812 3.88275 25.3431 3.37119 23.6866 3.00244C23.025 4.11463 22.4194 5.31807 21.8934 6.49494C21.2684 6.39119 20.6409 6.35213 20.0122 6.34494V6.34369L20 6.34494C19.995 6.34557 19.9928 6.34369 19.9875 6.34369V6.34494C19.3594 6.35213 18.7316 6.39119 18.1066 6.49494C17.5806 5.31838 16.9753 4.11463 16.3134 3.00244C14.6572 3.37119 13.0187 3.88275 11.4831 4.6565C11.5184 6.01275 11.6066 7.3115 11.7834 8.6315C11.1878 9.01338 10.5603 9.34182 10.0038 9.78838C9.43719 10.2243 8.86 10.6406 8.34719 11.1509C7.31015 10.4631 6.23372 9.83658 5.12344 9.27463C3.91969 10.5699 2.79375 11.9678 1.875 13.5328C2.59781 14.6668 3.37281 15.8056 4.08938 16.6943Z" fill="#478CBF"/>
<path d="M30.6279 28.0748L30.446 30.6873C30.4354 30.8395 30.37 30.9828 30.2621 31.0906C30.1541 31.1985 30.0108 31.2637 29.8585 31.2741L23.5891 31.7223C23.5748 31.7235 23.5588 31.7235 23.5441 31.7235C23.2329 31.7235 22.9629 31.4954 22.9179 31.1829L22.5579 28.7435H17.4429L17.0829 31.1826C17.0597 31.3406 16.9777 31.4841 16.8532 31.5842C16.7287 31.6842 16.571 31.7336 16.4116 31.7223L10.142 31.2741C9.98971 31.2636 9.84642 31.1983 9.7385 31.0904C9.63059 30.9825 9.56533 30.8392 9.55477 30.687L9.37289 28.0745L4.08008 27.5645C4.08258 28.1332 4.08945 28.757 4.08945 28.8804C4.08945 34.4701 11.1807 37.1566 19.9895 37.1873H20.0113C28.8201 37.1566 35.9085 34.4701 35.9085 28.8804C35.9085 28.7548 35.916 28.1335 35.9182 27.5645L30.6279 28.0748Z" fill="#478CBF"/>
<path d="M15.2028 20.5924C15.2028 22.5517 13.6147 24.1396 11.6556 24.1396C9.6975 24.1396 8.10938 22.5514 8.10938 20.5924C8.10938 18.6342 9.6975 17.0474 11.6556 17.0474C13.615 17.0474 15.2028 18.6342 15.2028 20.5924Z" fill="white"/>
<path d="M14.35 20.8019C14.3501 21.1111 14.2892 21.4172 14.1709 21.7029C14.0526 21.9886 13.8791 22.2481 13.6605 22.4667C13.4418 22.6853 13.1822 22.8587 12.8964 22.9769C12.6107 23.0951 12.3045 23.1558 11.9953 23.1556C11.3709 23.1557 10.7721 22.9078 10.3305 22.4664C9.88896 22.025 9.64079 21.4262 9.64062 20.8019C9.64096 20.1776 9.8892 19.579 10.3308 19.1378C10.7723 18.6965 11.3711 18.4486 11.9953 18.4487C12.3045 18.4485 12.6106 18.5092 12.8963 18.6274C13.182 18.7456 13.4416 18.9189 13.6602 19.1374C13.8789 19.3559 14.0524 19.6154 14.1707 19.901C14.2891 20.1866 14.35 20.4927 14.35 20.8019Z" fill="#414042"/>
<path d="M20.0006 24.4617C19.3694 24.4617 18.8594 23.9967 18.8594 23.4242V20.1586C18.8594 19.5864 19.3694 19.1211 20.0006 19.1211C20.6306 19.1211 21.1431 19.5864 21.1431 20.1586V23.4242C21.1431 23.9967 20.6306 24.4617 20.0006 24.4617ZM24.7969 20.5924C24.7969 22.5517 26.385 24.1396 28.3441 24.1396C30.3022 24.1396 31.8903 22.5514 31.8903 20.5924C31.8903 18.6342 30.3022 17.0474 28.3441 17.0474C26.3847 17.0474 24.7969 18.6342 24.7969 20.5924Z" fill="white"/>
<path d="M25.6484 20.8017C25.6484 21.1108 25.7092 21.4169 25.8274 21.7024C25.9456 21.988 26.119 22.2475 26.3375 22.4661C26.5561 22.6847 26.8156 22.8581 27.1011 22.9763C27.3867 23.0946 27.6928 23.1555 28.0019 23.1554C28.6261 23.1554 29.2247 22.9075 29.6661 22.4661C30.1075 22.0247 30.3555 21.426 30.3555 20.8018C30.3555 20.1776 30.1075 19.579 29.6661 19.1376C29.2247 18.6962 28.6261 18.4482 28.0019 18.4482C27.6928 18.4482 27.3868 18.5091 27.1013 18.6274C26.8158 18.7457 26.5564 18.919 26.3379 19.1376C26.1193 19.3561 25.946 19.6156 25.8278 19.9011C25.7095 20.1866 25.6484 20.4926 25.6484 20.8017Z" fill="#414042"/>
</svg>
