<svg width="40" height="40" viewBox="0 0 40 40" fill="none" xmlns="http://www.w3.org/2000/svg">
<path d="M5.94883 35.5862L2.82227 0.519043H37.1773L34.0473 35.5809L19.9788 39.4809L5.94883 35.5862Z" fill="#E44D26"/>
<path d="M20 36.5L31.3681 33.3481L34.0428 3.38623H20V36.5Z" fill="#F16529"/>
<path d="M19.9995 16.392H14.3083L13.9152 11.9876H19.9995V7.68701H9.21484L9.31797 8.84076L10.3748 20.693H19.9995V16.392ZM19.9995 27.5617L19.9805 27.567L15.1908 26.2733L14.8848 22.8436H10.567L11.1695 29.5964L19.9798 32.042L19.9995 32.0367V27.5617Z" fill="#EBEBEB"/>
<path d="M19.9844 16.392V20.693H25.2803L24.7813 26.2708L19.9844 27.5654V32.0401L28.8016 29.5964L28.8663 28.8698L29.8769 17.547L29.9816 16.392H28.8228H19.9844ZM19.9844 7.68701V11.9876H30.3731L30.4594 11.0214L30.6556 8.84076L30.7584 7.68701H19.9844Z" fill="white"/>
</svg>
