<svg width="40" height="40" viewBox="0 0 40 40" fill="none" xmlns="http://www.w3.org/2000/svg">
<path d="M14.8799 30.6624C14.8799 30.6624 13.3902 31.5293 15.9415 31.8218C19.0327 32.1749 20.6124 32.1243 24.018 31.4805C24.018 31.4805 24.9152 32.0415 26.1659 32.5277C18.5287 35.7996 8.8821 32.338 14.8799 30.6624ZM13.9462 26.3921C13.9462 26.3921 12.2749 27.6293 14.8284 27.8937C18.1305 28.2346 20.7377 28.2624 25.2515 27.3937C25.2515 27.3937 25.8743 28.0265 26.8552 28.3721C17.6234 31.0721 7.34085 28.5846 13.9462 26.3921Z" fill="#0074BD"/>
<path d="M21.8133 19.1473C23.6961 21.3145 21.3195 23.2629 21.3195 23.2629C21.3195 23.2629 26.0974 20.797 23.9036 17.7076C21.8539 14.8279 20.2827 13.3976 28.7895 8.46387C28.7895 8.46418 15.4361 11.7982 21.8133 19.1473Z" fill="#EA2D2E"/>
<path d="M31.9133 33.8217C31.9133 33.8217 33.0161 34.7311 30.6983 35.4339C26.2914 36.7689 12.3526 37.1714 8.48139 35.4873C7.09045 34.8817 9.69982 34.042 10.5208 33.8648C11.3767 33.6795 11.8654 33.7132 11.8654 33.7132C10.3176 32.6236 1.86138 35.8539 7.57076 36.7804C23.1398 39.3042 35.9511 35.6439 31.9133 33.8217ZM15.5973 21.967C15.5973 21.967 8.50795 23.6511 13.087 24.2632C15.0208 24.522 18.8739 24.4626 22.4654 24.1614C25.3998 23.9148 28.3445 23.3882 28.3445 23.3882C28.3445 23.3882 27.3108 23.8317 26.562 24.3423C19.3614 26.2364 5.45451 25.3542 9.45857 23.4179C12.8436 21.7807 15.5973 21.967 15.5973 21.967ZM28.3151 29.0754C35.6342 25.2732 32.2498 21.6192 29.8876 22.1114C29.3101 22.2317 29.0511 22.3364 29.0511 22.3364C29.0511 22.3364 29.2661 21.9992 29.6761 21.8542C34.3489 20.212 37.942 26.6989 28.1689 29.2682C28.1689 29.2676 28.2811 29.1661 28.3151 29.0754Z" fill="#0074BD"/>
<path d="M23.904 0.496094C23.904 0.496094 27.9565 4.55109 20.0594 10.7845C13.7262 15.7864 18.6153 18.6377 20.0572 21.8967C16.36 18.5614 13.6481 15.6248 15.4672 12.892C18.1384 8.88141 25.5387 6.93609 23.904 0.496094Z" fill="#EA2D2E"/>
<path d="M16.3174 39.3814C23.3412 39.8304 34.1299 39.1314 34.3852 35.8076C34.3852 35.8076 33.8943 37.0676 28.5799 38.0673C22.5843 39.1961 15.188 39.0645 10.8027 38.3404C10.8027 38.3407 11.7012 39.0845 16.3174 39.3814Z" fill="#0074BD"/>
</svg>
