<svg width="40" height="40" viewBox="0 0 40 40" fill="none" xmlns="http://www.w3.org/2000/svg">
<path d="M5.99961 2.5H33.9996V37.5H5.99961M3.66211 4.8375H36.3371V35.1625H3.66211" fill="#6D6A76"/>
<path d="M8.33711 2.5H31.6621V37.5H8.33711M5.99961 4.8375H33.9996V35.1625H5.99961M3.66211 7.1625H36.3371V32.8375H3.66211" fill="#655561"/>
<path d="M8.3375 4.8374H31.6625V35.1624H8.3375M6 7.1624H34V32.8374H6V7.1624Z" fill="#7D929E"/>
<path d="M8.3375 4.8374H31.6625V30.4999H8.3375M6 7.1624H34V28.1624H6V7.1624Z" fill="white"/>
<path d="M13 11.8374H15.3375V21.1624H13V11.8374ZM24.6625 11.8374H27V21.1624H24.6625V11.8374Z" fill="#655561"/>
</svg>
