<svg width="40" height="40" viewBox="0 0 40 40" fill="none" xmlns="http://www.w3.org/2000/svg">
<g clip-path="url(#clip0_62_12)">
<mask id="mask0_62_12" style="mask-type:luminance" maskUnits="userSpaceOnUse" x="0" y="0" width="40" height="40">
<path d="M28.2544 39.7801C28.5714 39.9047 28.9105 39.9622 29.2505 39.9491C29.5906 39.9359 29.9243 39.8523 30.2309 39.7036L38.4342 35.7253C38.8567 35.5203 39.2132 35.1992 39.4626 34.799C39.7121 34.3989 39.8444 33.9358 39.8444 33.4632V6.48749C39.8444 6.01492 39.7121 5.55193 39.4626 5.15179C39.2131 4.75165 38.8567 4.43061 38.4342 4.2256L30.2311 0.247177C29.7675 0.0224443 29.2461 -0.0515353 28.7391 0.0354738C28.232 0.122483 27.7643 0.36618 27.4006 0.732846L11.6964 15.173L4.85576 9.93962C4.5472 9.70355 4.16637 9.58379 3.77936 9.60114C3.39235 9.61849 3.02357 9.77183 2.73701 10.0346L0.543106 12.0461C-0.180332 12.7092 -0.181113 13.8563 0.541231 14.5206L6.47357 19.9754L0.541231 25.43C-0.181113 26.0944 -0.180332 27.2414 0.543106 27.9047L2.73701 29.916C3.02355 30.1788 3.39232 30.3321 3.77933 30.3495C4.16634 30.3669 4.54718 30.2472 4.85576 30.0111L11.6964 24.7776L27.4006 39.2177C27.6434 39.4629 27.9341 39.6544 28.2544 39.7801M29.8894 10.859L17.9734 19.9754L29.8894 29.0916V10.859Z" fill="white"/>
</mask>
<g mask="url(#mask0_62_12)">
<path d="M38.4586 4.23156L30.2489 0.247627C29.7852 0.0226425 29.2636 -0.0515331 28.7563 0.0353644C28.249 0.122262 27.781 0.365936 27.4171 0.732666L0.541524 25.4298C-0.181289 26.0942 -0.180351 27.2412 0.543399 27.9045L2.73871 29.9158C3.0255 30.1786 3.3945 30.332 3.78174 30.3494C4.16898 30.3668 4.55004 30.247 4.85887 30.0109L37.2232 5.26511C38.309 4.43503 39.8686 5.2155 39.8686 6.58904V6.49298C39.8685 6.0205 39.7362 5.55763 39.4867 5.15758C39.2373 4.75754 38.8809 4.43656 38.4586 4.23156Z" fill="#0065A9"/>
</g>
<mask id="mask1_62_12" style="mask-type:luminance" maskUnits="userSpaceOnUse" x="0" y="0" width="40" height="40">
<path d="M28.2544 39.7801C28.5714 39.9047 28.9105 39.9622 29.2505 39.9491C29.5906 39.9359 29.9243 39.8523 30.2309 39.7036L38.4342 35.7253C38.8567 35.5203 39.2132 35.1992 39.4626 34.799C39.7121 34.3989 39.8444 33.9358 39.8444 33.4632V6.48749C39.8444 6.01492 39.7121 5.55193 39.4626 5.15179C39.2131 4.75165 38.8567 4.43061 38.4342 4.2256L30.2311 0.247177C29.7675 0.0224443 29.2461 -0.0515353 28.7391 0.0354738C28.232 0.122483 27.7643 0.36618 27.4006 0.732846L11.6964 15.173L4.85576 9.93962C4.5472 9.70355 4.16637 9.58379 3.77936 9.60114C3.39235 9.61849 3.02357 9.77183 2.73701 10.0346L0.543106 12.0461C-0.180332 12.7092 -0.181113 13.8563 0.541231 14.5206L6.47357 19.9754L0.541231 25.43C-0.181113 26.0944 -0.180332 27.2414 0.543106 27.9047L2.73701 29.916C3.02355 30.1788 3.39232 30.3321 3.77933 30.3495C4.16634 30.3669 4.54718 30.2472 4.85576 30.0111L11.6964 24.7776L27.4006 39.2177C27.6434 39.4629 27.9341 39.6544 28.2544 39.7801M29.8894 10.859L17.9734 19.9754L29.8894 29.0916V10.859Z" fill="white"/>
</mask>
<g mask="url(#mask1_62_12)">
<path d="M38.4586 35.719L30.2489 39.703C29.7852 39.9278 29.2636 40.0019 28.7563 39.915C28.2491 39.8282 27.7811 39.5845 27.4171 39.2179L0.541524 14.5208C-0.181289 13.8565 -0.180351 12.7094 0.543399 12.0463L2.73871 10.0348C3.02552 9.77197 3.39453 9.6186 3.78177 9.60126C4.16901 9.58392 4.55006 9.70369 4.85887 9.93981L37.2232 34.6855C38.309 35.5156 39.8686 34.7351 39.8686 33.3614V33.4576C39.8685 33.9301 39.7362 34.393 39.4867 34.793C39.2373 35.193 38.8809 35.514 38.4586 35.719Z" fill="#007ACC"/>
</g>
<mask id="mask2_62_12" style="mask-type:luminance" maskUnits="userSpaceOnUse" x="0" y="0" width="40" height="40">
<path d="M28.2544 39.7801C28.5714 39.9047 28.9105 39.9622 29.2505 39.9491C29.5906 39.9359 29.9243 39.8523 30.2309 39.7036L38.4342 35.7253C38.8567 35.5203 39.2132 35.1992 39.4626 34.799C39.7121 34.3989 39.8444 33.9358 39.8444 33.4632V6.48749C39.8444 6.01492 39.7121 5.55193 39.4626 5.15179C39.2131 4.75165 38.8567 4.43061 38.4342 4.2256L30.2311 0.247177C29.7675 0.0224443 29.2461 -0.0515353 28.7391 0.0354738C28.232 0.122483 27.7643 0.36618 27.4006 0.732846L11.6964 15.173L4.85576 9.93962C4.5472 9.70355 4.16637 9.58379 3.77936 9.60114C3.39235 9.61849 3.02357 9.77183 2.73701 10.0346L0.543106 12.0461C-0.180332 12.7092 -0.181113 13.8563 0.541231 14.5206L6.47357 19.9754L0.541231 25.43C-0.181113 26.0944 -0.180332 27.2414 0.543106 27.9047L2.73701 29.916C3.02355 30.1788 3.39232 30.3321 3.77933 30.3495C4.16634 30.3669 4.54718 30.2472 4.85576 30.0111L11.6964 24.7776L27.4006 39.2177C27.6434 39.4629 27.9341 39.6544 28.2544 39.7801M29.8894 10.859L17.9734 19.9754L29.8894 29.0916V10.859Z" fill="white"/>
</mask>
<g mask="url(#mask2_62_12)">
<path d="M30.2227 39.706C29.7589 39.9309 29.2373 40.005 28.7299 39.918C28.2225 39.831 27.7545 39.5873 27.3906 39.2205C28.3095 40.1465 29.8809 39.4906 29.8809 38.1807V1.77516C29.8809 0.465234 28.3095 -0.190671 27.3906 0.735471C27.7545 0.368671 28.2225 0.124907 28.7299 0.0378993C29.2372 -0.0491085 29.7589 0.0249399 30.2227 0.249801L38.4309 4.22823C38.8535 4.43312 39.2102 4.75412 39.4598 5.15426C39.7094 5.55441 39.8418 6.01746 39.8419 6.49012V33.466C39.8419 34.4306 39.2934 35.31 38.4309 35.7279L30.2227 39.706Z" fill="#1F9CF0"/>
</g>
<mask id="mask3_62_12" style="mask-type:luminance" maskUnits="userSpaceOnUse" x="0" y="0" width="40" height="40">
<path d="M28.2544 39.7801C28.5714 39.9047 28.9105 39.9622 29.2505 39.9491C29.5906 39.9359 29.9243 39.8523 30.2309 39.7036L38.4342 35.7253C38.8567 35.5203 39.2132 35.1992 39.4626 34.799C39.7121 34.3989 39.8444 33.9358 39.8444 33.4632V6.48749C39.8444 6.01492 39.7121 5.55193 39.4626 5.15179C39.2131 4.75165 38.8567 4.43061 38.4342 4.2256L30.2311 0.247177C29.7675 0.0224443 29.2461 -0.0515353 28.7391 0.0354738C28.232 0.122483 27.7643 0.36618 27.4006 0.732846L11.6964 15.173L4.85576 9.93962C4.5472 9.70355 4.16637 9.58379 3.77936 9.60114C3.39235 9.61849 3.02357 9.77183 2.73701 10.0346L0.543106 12.0461C-0.180332 12.7092 -0.181113 13.8563 0.541231 14.5206L6.47357 19.9754L0.541231 25.43C-0.181113 26.0944 -0.180332 27.2414 0.543106 27.9047L2.73701 29.916C3.02355 30.1788 3.39232 30.3321 3.77933 30.3495C4.16634 30.3669 4.54718 30.2472 4.85576 30.0111L11.6964 24.7776L27.4006 39.2177C27.6434 39.4629 27.9341 39.6544 28.2544 39.7801M29.8894 10.859L17.9734 19.9754L29.8894 29.0916V10.859Z" fill="white"/>
</mask>
<g mask="url(#mask3_62_12)">
<path d="M28.2544 39.7797C28.5714 39.9043 28.9105 39.9618 29.2505 39.9487C29.5906 39.9355 29.9243 39.8519 30.2309 39.7032L38.434 35.7247C38.8565 35.5198 39.213 35.1987 39.4625 34.7986C39.712 34.3984 39.8444 33.9355 39.8444 33.4629V6.48711C39.8444 6.01453 39.7121 5.55155 39.4626 5.15141C39.2131 4.75127 38.8567 4.43023 38.4342 4.22522L30.2308 0.246638C29.7672 0.021941 29.2459 -0.052019 28.7388 0.0349894C28.2318 0.121998 27.7641 0.365674 27.4005 0.732307L11.6964 15.1726L4.85576 9.93924C4.5472 9.70316 4.16637 9.58341 3.77936 9.60076C3.39235 9.6181 3.02357 9.77145 2.73701 10.0342L0.543106 12.0457C-0.180332 12.7088 -0.181113 13.8559 0.541231 14.5202L6.47357 19.975L0.541231 25.4296C-0.181113 26.094 -0.180332 27.241 0.543106 27.9043L2.73701 29.9156C3.02355 30.1784 3.39232 30.3318 3.77933 30.3491C4.16634 30.3665 4.54718 30.2468 4.85576 30.0107L11.6964 24.7772L27.4005 39.2173C27.6434 39.4623 27.9342 39.6538 28.2544 39.7797ZM29.8894 10.8584L17.9734 19.975L29.8894 29.0912V10.8584Z" fill="url(#paint0_linear_62_12)" fill-opacity="0.25"/>
</g>
</g>
<defs>
<linearGradient id="paint0_linear_62_12" x1="1992.22" y1="-0.000488281" x2="1992.22" y2="3995.1" gradientUnits="userSpaceOnUse">
<stop stop-color="white"/>
<stop offset="1" stop-color="white" stop-opacity="0"/>
</linearGradient>
<clipPath id="clip0_62_12">
<rect width="40" height="40" fill="white"/>
</clipPath>
</defs>
</svg>
